<svg height="269.185693" viewBox="0 0 144.003 104.25" width="371.490768" xmlns="http://www.w3.org/2000/svg"><path d="m115.973 78.994-.555 1.49h-.012l-.528-1.49h-.808v2.282h.466v-1.819h.013l.636 1.819h.45l.663-1.819h.011v1.819h.466v-2.282zm-4.164.405h.685v1.877h.47v-1.877h.687v-.405h-1.842z" fill="#002b5c"/><path d="m53.011 5.356-.024.013a.34.34 0 0 0 .034-.007zm37.981 0-.01.006.034.007c-.008-.005-.016-.01-.024-.013m-19.411 9.887.421-.278zm-1.84 1.223-25.817 17.144zm-53.658 35.632-6.508 4.321 17.226 11.438-17.226-11.438zm23.368 24.16-6.36-4.223zm-16.784-28.532 3.163-2.101zm7.749-5.146 1.215-.808zm15.83 38.191 25.755 17.104z" fill="#fff"/><path d="m144.003 56.419-11.403-7.572.119-.107 1.714-1.538-5.828-3.881.401-.592c1.561-2.303 1.804-4.854.666-6.995-.846-1.6-2.385-2.737-4.217-3.188l3.038-1.91c1.056-.692 1.662-1.904 1.688-3.344.022-1.231-.383-2.545-1.136-3.696-1.209-1.846-3.131-3.038-4.895-3.038-.686 0-1.331.186-1.865.536l-2.855 1.938a1.841 1.841 0 0 0 -1.778-1.386 3.61 3.61 0 0 1 -.255.006c-.978 0-4.415-.195-7.604-2.708-1.912-1.508-3.151-3.361-4.465-5.325-1.217-1.817-2.475-3.699-4.313-5.337-1.771-1.577-3.704-2.777-5.776-3.589a3.641 3.641 0 0 0 -3.482-4.693 3.64 3.64 0 0 0 -3.49 2.622l-13.155 8.735-3.109-2.064-3.108 2.064-13.158-8.735a3.641 3.641 0 0 0 -3.491-2.622 3.64 3.64 0 0 0 -3.481 4.692c-2.072.812-4.006 2.012-5.776 3.589-1.838 1.638-3.095 3.519-4.313 5.337-1.313 1.964-2.553 3.817-4.466 5.325-3.188 2.513-6.626 2.708-7.604 2.708a4.08 4.08 0 0 1 -.262-.006 1.84 1.84 0 0 0 -1.775 1.368l-2.826-1.904a3.418 3.418 0 0 0 -1.891-.552c-1.765 0-3.687 1.192-4.895 3.038-.756 1.151-1.158 2.465-1.137 3.696.025 1.439.63 2.651 1.66 3.326l6.917 4.35c-1.903.811-3.623 1.932-5.028 3.298-2.633 2.56-4.097 5.881-4.134 9.363l-13.235 8.791 15.572 10.341a7.73 7.73 0 0 0 -3.459 6.394c0 3.957 3.202 7.963 9.321 7.963 1.766 0 3.569-.368 5.286-1.073 1.077 1.054 2.373 2.234 4.079 3.194l-5.672 3.854a3.685 3.685 0 0 0 -1.482-.331c-.568 0-1.109.158-1.566.457-.968.632-1.447 1.794-1.315 3.186.093 1.006.505 2.109 1.157 3.106 1.143 1.744 2.774 2.827 4.259 2.827.57 0 1.115-.158 1.571-.457.873-.571 1.337-1.551 1.334-2.741l13.463-8.465 29.425 19.576 29.48-19.576 13.463 8.465c-.002 1.19.461 2.17 1.334 2.741.458.299 1 .457 1.57.457 1.484 0 3.117-1.083 4.26-2.827 1.644-2.511 1.578-5.156-.158-6.292a2.842 2.842 0 0 0 -1.565-.457c-.484 0-.985.112-1.483.331l-10.411-7.073 4.688-3.112a11.94 11.94 0 0 0 2.438.249c5.269 0 9.883-3.011 12.824-5.536l4.035-3.467-3.063-2.027zm-14.511 11.921-2.241 1.924c-2.713 2.329-6.938 5.106-11.661 5.106a9.89 9.89 0 0 1 -2.772-.387l-7.557 5.019 13.553 9.207c.783-.62 1.598-.847 2.132-.497.827.542.666 2.252-.358 3.818-1.026 1.565-2.529 2.398-3.357 1.855-.534-.35-.653-1.185-.397-2.152l-15.405-9.687-27.485 18.252-1.94 1.289-1.943-1.289-27.391-18.188c-.146.05-.292.106-.437.151l-15.063 9.471c.255.968.137 1.803-.396 2.152-.829.543-2.332-.289-3.358-1.855-1.025-1.566-1.185-3.276-.358-3.818.533-.35 1.346-.123 2.133.497l9.342-6.347a13.571 13.571 0 0 1 -2.152-.813c-2.146-1.033-3.619-2.495-4.92-3.782l-.364-.362c-1.798.926-3.756 1.426-5.662 1.426-4.945 0-7.534-3.107-7.534-6.176 0-2.651 1.87-5.322 5.459-6.024l-11.726-7.786-4.404-2.925 4.404-2.924 7.434-4.937c-.021-.263-.044-.526-.044-.798 0-3.043 1.277-5.961 3.594-8.214 2.11-2.053 4.981-3.449 8.056-4.004l-10.212-6.421c-1.081-.707-1.19-2.745-.009-4.549 1.183-1.806 3.208-2.694 4.288-1.987l9.382 6.375c1.469-1.086 3.368-1.722 5.495-1.722 3.066 0 5.596 1.153 7.034 3.002l23.917-15.882-.44-.293c-8.96-.036-15.167 6.124-17.019 7.555-3.432 2.653-6.793 4.529-10.897 4.849-7.659.593-11.988-3.078-11.988-3.078s4.726.349 9.071-3.075c3.993-3.147 5.278-7.539 8.857-10.729 2.609-2.323 5.346-3.546 8.024-4.073a1.88 1.88 0 0 1 .07-3.762c1.042 0 1.886.844 1.886 1.883 0 .009-.003.014-.003.02l14.278 9.483 1.651-1.097 1.943-1.289 1.94 1.289 1.651 1.097 14.28-9.483-.002-.02a1.885 1.885 0 0 1 3.771 0 1.883 1.883 0 0 1 -1.816 1.879c2.679.527 5.415 1.75 8.023 4.073 3.581 3.19 4.866 7.582 8.859 10.729 4.343 3.424 9.069 3.075 9.069 3.075s-4.328 3.671-11.985 3.078c-4.105-.319-7.468-2.195-10.9-4.849-1.85-1.431-8.056-7.591-17.017-7.555l-.44.291 29.299 19.457 16.529-11.228c1.081-.707 3.105.182 4.287 1.987 1.183 1.804 1.073 3.842-.008 4.549l-8.422 5.295h2.377a7.94 7.94 0 0 1 2.162-.302c1.933 0 3.633.939 4.436 2.454.817 1.54.609 3.418-.567 5.155l-1.413 2.084 5.41 3.601-1.835 1.649 6.681 4.438 4.404 2.924-4.404 2.925-10.217 6.784z" fill="#fff"/><path d="m52.986 5.368a1.865 1.865 0 0 1 -.74.152c-.024 0-.045-.006-.069-.006-2.679.527-5.415 1.748-8.024 4.072-3.579 3.19-4.864 7.582-8.857 10.729-4.345 3.424-9.071 3.073-9.071 3.073s4.329 3.673 11.988 3.08c4.104-.318 7.466-2.195 10.897-4.849 1.852-1.431 8.059-7.591 17.019-7.556l-13.107-8.701c-.013.001-.023.004-.036.006m-12.116 18.329c.01-.089.039-.229.046-.32-1.187-.976-1.779-1.465-2.967-2.44-.166-.037-.25-.054-.416-.09 1.769-.771 2.412-1.486 3.564-2.703l.889.73c-.17.109-.258.163-.434.267 0 0-.657.716-1.387 1.244l.763.626a8.54 8.54 0 0 0 .949-.672c.126-.161.187-.243.301-.411l.965.791c-.191.093-.289.139-.484.227-.382.28-.58.413-1.005.659l.709.581a9.119 9.119 0 0 0 1.686-1.121c.123-.162.183-.246.298-.414l.893.732c-1.299 1.088-2.231 1.757-4.37 2.314m7.691-5.517c-.811.763-1.209 1.15-2.095 1.852-.388-.327-.581-.49-.97-.814.185-.089.277-.133.46-.224a25.05 25.05 0 0 0 1.145-1.088l.021-.257-.416-.349c-1.164.194-1.727.309-2.87.522l-1.004-.846c.055-.604.068-.919.077-1.565.669-.881.975-1.348 1.626-2.244l1.105.929c-.165.106-.245.159-.407.267-.387.494-.576.745-.967 1.236l-.005.272.342.287c1.11-.24 1.671-.356 2.858-.533.486.41.729.615 1.218 1.024-.037.622-.059.928-.118 1.531m5.715-5.978c.48-.155.731-.223 1.265-.332.24.049.361.074.606.126.302.253.638.527.938.78a4.719 4.719 0 0 0 -.148.26c-.546.099-.803.16-1.296.305-.225-.037-.338-.053-.558-.085-.288-.243-.619-.514-.907-.755zm-.324 2.119c-.859.402-1.245.639-1.98 1.145l-.157-.372c-1.577-1.328-2.367-1.992-3.944-3.322-.272.25-.403.379-.662.641l-.214.463-1.142-.959c1.198-1.391 1.821-2.067 3.583-2.984l1.296 1.091c-.241.04-.36.061-.592.111a8.685 8.685 0 0 0 -.853.514 3293.81 3293.81 0 0 1 4.126 3.468c.215.079.322.121.539.204m37.029-8.958-13.106 8.703c8.961-.037 15.167 6.123 17.018 7.554 3.433 2.654 6.794 4.529 10.899 4.849 7.658.595 11.986-3.078 11.986-3.078s-4.727.351-9.07-3.073c-3.994-3.147-5.278-7.539-8.858-10.73-2.608-2.323-5.345-3.544-8.025-4.073-.27-.054-.54-.104-.809-.144a.11.11 0 0 0 -.035-.008m14.515 15.777a8.601 8.601 0 0 1 -1.358-.833c-.189-.072-.282-.111-.468-.188.359-.327.54-.489.901-.815.818.695 1.267 1.006 2.316 1.49.218.423.346.62.639.976-.315.284-.472.425-.786.71-.398.034-.593.051-.981.076.171.225.264.333.463.531l-1.028.929-1.632.18c-1.439-.381-2.05-.681-3.068-1.276l.903-.815c.11.131.169.195.284.32.619.362.947.526 1.66.803l.31-.015.626-.566c-.041-.068-.06-.104-.098-.175-.307-.13-.453-.2-.737-.347-.21-.054-.314-.084-.52-.144.389-.349.584-.524.971-.875.114.129.174.191.294.314.245.14.371.207.634.332l.294-.003c.188-.168.28-.253.466-.421-.034-.074-.053-.112-.085-.188m-4.1-3.813a32.426 32.426 0 0 1 -.95-1.205l-.393-.256 1.067-.963c.61.88.915 1.321 1.586 2.146.008.615.021.915.071 1.49l-.955.863c-1.303.077-1.951.117-3.283.223.439.429.663.64 1.135 1.038.182.078.272.119.459.196-.381.343-.569.515-.95.857-1.264-.938-1.802-1.494-2.905-2.58l.913-.823a68.637 68.637 0 0 1 3.687-.257l.521-.471a10.969 10.969 0 0 1 -.003-.258m-3.433-6.248c.519.566.757.868 1.22 1.485a90.454 90.454 0 0 0 -.131 1.67l-3.455 3.121a31.373 31.373 0 0 0 -1.653-.06c-.775-.703-1.174-1.045-2.063-1.647l1.236-1.116c.088.152.13.229.215.385.48.375.706.575 1.147.985.115.001.173.002.287.005l.722-.652a15.228 15.228 0 0 0 -1.058-.986c-.002-.62-.003-.931-.012-1.541l1.826-1.65a21.873 21.873 0 0 1 1.719.001m-3.642-2.647c.427.25.627.387 1.004.68l-.483.212-5.184 4.664-.208.421c-.739-.391-1.138-.559-2.024-.817l.55-.27 4.554-4.099a8.026 8.026 0 0 0 -.969-.373l.806-.726a11.23 11.23 0 0 1 1.954.308" fill="#002b5c"/><path d="m97.707 13.251c.006-.111.01-.167.018-.279-.15-.173-.224-.259-.377-.427l-.279-.012-1.063.959-.008.271c.216.217.322.327.529.553z" fill="#002b5c"/><path d="m18.966 73.184c0 .712.652 1.431 2.109 1.431 1.526 0 2.829-.418 3.982-1.277-1.591-1.128-2.954-1.676-4.162-1.676-1.252-.001-1.929.784-1.929 1.522m102.88-32.712c.485-.7.606-1.284.311-1.525-.591-.48-2.916.316-6.897 4.507l-.111.163 3.131 2.078z" fill="#e31837"/><g fill="#002b5c"><path d="m42.83 62.701c1.161-1.118 1.783-2.517 1.747-3.935-.021-.861-.386-1.888-1.999-1.888-1.135 0-2.323.81-3.345 2.281l-4.094 5.955c3.119.171 5.917-.702 7.691-2.413m72.315 4.255-.336.508c-.665.977-.877 1.804-.676 2.434l3.918-2.603c-1.11.071-2.124-.072-2.906-.339m6.641-3.74.541-.788c.774-1.137.883-2.059.291-2.468-.751-.516-2.62-.058-3.951 1.864l-2.373 3.485c1.068.307 3.583.636 5.492-2.093m-1.866-13.416c.14.267.502.323.781.323.666 0 1.549-.369 2.627-1.075l-2.344-1.556-.67.989c-.405.582-.542 1.038-.394 1.319m-76.551.323c1.68 0 3.928-1.646 6.015-4.405l2.923-4.307c.617-.956.611-1.777-.015-2.193-.247-.165-.588-.254-.977-.254-.956 0-2.207.542-3.102 1.844l-5.231 7.675c-.403.581-.54 1.036-.396 1.317.143.267.504.323.783.323m18.181-.484h.076c2.283 0 2.716-2.529 3.174-5.207.214-1.242.433-2.524.842-3.632l-.714.805c-1.219 1.379-2.734 3.095-4.406 4.717l-.015.016c-.406.395-.811.78-1.205 1.141.125.66.591 2.119 2.248 2.16m26.303-8.831-2.372 3.485c1.067.305 3.583.635 5.49-2.094l.542-.788c.774-1.136.884-2.059.291-2.468-.754-.514-2.621-.058-3.951 1.865m-37.673 24.502c1.065.303 3.582.636 5.493-2.094l.541-.788c.774-1.137.884-2.059.29-2.468-.753-.517-2.618-.058-3.951 1.864zm28.417 5.506c.139.267.501.323.782.323 1.708 0 3.984-1.692 6.087-4.527l2.849-4.184c.617-.956.612-1.777-.015-2.193-.247-.165-.586-.255-.977-.255-.956 0-2.208.543-3.103 1.845l-5.229 7.674c-.404.581-.542 1.036-.394 1.317m-.997 7.385 1.607-2.412c-2.364.8-3.561 1.673-3.561 2.596 0 .289.163.511.437.596.411.123 1.04-.068 1.517-.78"/><path d="m110.468 69.856c-2.759 2.244-5.059 3.336-7.032 3.336-1.267 0-2.273-.383-2.839-1.079-.414-.513-.569-1.156-.453-1.872-1.617 1.295-3.96 2.951-6.087 2.951-.926 0-1.647-.27-2.084-.779-.357-.419-.507-.986-.43-1.648-2.59 1.895-5.167 3.164-7.875 3.877l-2.837 4.14c-1.321 1.896-3.304 2.726-5.01 2.726-.491 0-.96-.067-1.383-.2-1.211-.381-1.934-1.258-1.934-2.347 0-2.229 2.697-4.012 8.246-5.447l.904-1.283c-1.248.632-2.418.963-3.396.963-1.187 0-2.125-.322-2.713-.934a2.22 2.22 0 0 1 -.617-1.557c-2.287 1.676-4.23 2.49-5.939 2.49-1.801 0-3.05-.773-3.285-2.022-1.913 1.305-3.739 2.022-5.155 2.022-1.212 0-2.196-.354-2.772-.995-.409-.459-.6-1.042-.554-1.691-2.696 1.782-5.301 2.687-7.747 2.687-2.3 0-4.045-.817-4.79-2.243-.654-1.251-.43-2.781.633-4.306l3.932-5.672c1.65-2.397 4.099-3.664 7.08-3.664 1.687 0 3.031.645 3.598 1.724.51.977.312 2.206-.559 3.459l-.54.79c-2.873 4.181-7.414 4.492-9.799 3.676l-.337.509c-.742 1.094-.952 2.012-.61 2.658.346.655 1.238 1.018 2.512 1.018 2.423 0 5.78-1.809 8.762-4.717l.283-.271 3.569-5.182c1.655-2.404 4.506-3.664 6.467-3.664 1.277 0 2.463.504 3.252 1.382.513.57.78 1.225.741 1.803h2.172l-.06.088-6.061 8.918c-.403.582-.541 1.038-.394 1.318.14.268.501.324.782.324 1.43 0 3.705-1.544 6.959-4.717l.279-.269 3.573-5.184c1.654-2.404 4.506-3.664 6.466-3.664 1.08 0 2.103.37 2.883 1.042.672.581 1.081 1.322 1.102 1.991h2.253l-8.364 12.015c2.742-1.018 5.308-2.801 8.544-5.933l.249-.24 5.892-8.571h3.886l-.059.087-7.434 10.892c-.343.48-.863 1.21-.729 1.636.046.144.156.243.343.311a.664.664 0 0 0 .222.034c.861 0 2.906-1.165 5.489-3.146l6.686-9.813h3.887l-.06.087-8.008 11.798c-.404.583-.543 1.039-.395 1.319.14.268.502.324.782.324 1.43 0 3.705-1.544 6.958-4.717l.222-.211 3.631-5.241c1.648-2.397 4.097-3.662 7.078-3.662 1.688 0 3.033.645 3.599 1.723.479.917.325 2.058-.415 3.231l8.801-5.845-9.511-6.314c-2.018 1.377-3.785 2.07-5.334 2.07-1.475 0-2.599-.521-3.079-1.432-.465-.874-.29-2.019.474-3.143l1.3-1.906-3.13-2.078-5.635 8.257h-3.924l.879-1.278c-1.706 1.049-3.251 1.58-4.595 1.58-1.475 0-2.598-.521-3.079-1.432-.465-.874-.291-2.019.473-3.143l3.968-5.795c.374-.548.299-1.16-.212-1.719l-.461-.473c-2.908 3.33-4.306 4.899-6.069 6.626h.002l-.1.097c-2.23 2.181-6.705 5.838-11.618 5.838-2.879 0-4.876-1.304-5.124-3.335-2.756 2.245-5.058 3.335-7.031 3.335-1.216 0-2.203-.354-2.777-1.002-.41-.459-.599-1.045-.548-1.698-2.281 1.5-4.497 2.379-6.587 2.61-.012 0-.027.007-.039.012a.175.175 0 0 1 -.074.019l-.071.007c-.325.027-.631.053-.967.053h-.01c-3.077-.001-4.08-2.143-4.343-2.923-2.533 1.968-4.666 2.923-6.513 2.923-1.8 0-3.051-.771-3.287-2.021-1.91 1.305-3.738 2.021-5.153 2.021-1.475 0-2.599-.521-3.08-1.432-.464-.874-.29-2.019.473-3.143l5.268-7.645c1.656-2.405 4.507-3.664 6.466-3.664 1.279 0 2.465.504 3.253 1.383.513.572.779 1.224.74 1.802h2.174l-.06.087-6.062 8.919c-.404.58-.542 1.036-.395 1.316.139.267.502.324.782.324 1.428 0 3.704-1.542 6.959-4.715l.249-.243c2.773-2.729 5.503-5.933 7.307-8.052l.44-.518h3.832l-.061.088c-1.656 2.373-2.061 4.995-2.452 7.532-.246 1.605-.48 3.128-1.018 4.53a22.537 22.537 0 0 0 4.362-3.338l.264-.255 5.8-8.446h-3.429l1.162-1.628h3.39l3.534-5.157h3.887l-.06.087-3.476 5.07h3.105l-1.162 1.628h-3.065l-8.027 11.775c-.405.58-.543 1.037-.395 1.316.139.269.502.324.781.324 1.43 0 3.706-1.542 6.959-4.715l.222-.213 3.63-5.239c1.65-2.397 4.099-3.664 7.08-3.664 1.687 0 3.03.644 3.597 1.724.511.976.313 2.205-.557 3.458l-.542.79c-2.873 4.184-7.415 4.491-9.799 3.676l-.336.51c-.743 1.091-.953 2.011-.612 2.658.347.655 1.24 1.016 2.514 1.016 2.422 0 5.779-1.807 8.763-4.715l.25-.243c2.39-2.363 4.604-4.994 6.22-6.914l.095-.113-.292-.328c-.587-.64-.868-1.402-.812-2.206.039-.546.242-1.079.572-1.587l-28.69-19.05-.421.278-1.84 1.223-25.817 17.143-2.333 1.551c-.512 1.757-2.029 2.72-2.049 2.731l-.035.021-.03-.027-.854-.755-6.991 4.644-1.214.807-4.587 3.045-3.163 2.101-1.966 1.306c.712 2.277 3.22 4.288 7.017 4.288 3.3 0 5.698-1.913 6.613-3.808.702-1.457.579-2.957-.339-4.111l-.039-.049.052-.032 2.166-1.439.032.034c1.652 1.72 2.063 3.967 1.126 6.165-1.181 2.768-4.77 5.746-9.864 5.746-4.6 0-8.137-1.923-9.567-4.933l-1.814 1.204-6.508 4.322 17.226 11.438 1.814 1.205 1.83-2.782c-2.966-1.282-4.734-3.634-4.734-6.303 0-.646.12-1.299.354-1.94l.011-.038h2.911l-.04.08a4.051 4.051 0 0 0 -.457 1.837c0 1.849 1.226 3.498 3.279 4.419l4.556-6.575c1.565-2.296 3.961-3.724 6.25-3.724 2.918 0 5.033 2.001 5.033 4.756 0 1.422-.464 2.732-1.461 4.117-2.408 3.342-7.524 5.09-12.456 4.256l-2.416 3.664 1.812 1.205 6.361 4.223 2.363 1.57c1.05-.48 2.016-1.223 2.884-2.234l.032-.037.039.027 2.302 1.526-.042.049a12.609 12.609 0 0 1 -2.745 2.309l1.961 1.302 25.757 17.104 39.373-26.146a3.214 3.214 0 0 1 -.906-1.872"/><path d="m103.807 36.904 1.883 1.923c1.28 1.298 1.965 2.225.668 4.135l-3.753 5.52c-.404.58-.541 1.037-.394 1.316.141.269.503.324.781.324 1.431 0 3.707-1.542 6.959-4.715l.247-.238 2.285-3.323-9.045-6.007c-.001.406.131.808.369 1.065m-33.203 25.524c.617-.956.61-1.777-.015-2.193-.247-.164-.587-.255-.976-.255-.957 0-2.208.543-3.103 1.844l-5.23 7.675c-.403.582-.541 1.038-.396 1.318.14.267.501.324.782.324 1.68 0 3.928-1.647 6.014-4.407z"/></g><path d="m136.371 59.344 4.403-2.924-4.403-2.926-6.683-4.436 1.837-1.649-5.41-3.601 1.411-2.082c1.179-1.737 1.385-3.616.568-5.156-.804-1.514-2.502-2.455-4.436-2.455-.725 0-1.444.101-2.163.304h-2.377l8.423-5.295c1.081-.709 1.19-2.745.008-4.55-1.182-1.806-3.206-2.695-4.286-1.987l-16.53 11.228-29.297-19.457.44-.292 13.106-8.703.01-.009.024.015c.269.039.541.091.81.143a1.879 1.879 0 0 0 1.815-1.877 1.885 1.885 0 0 0 -3.77 0l.002.02-14.279 9.482-1.651-1.098-1.941-1.289-1.942 1.29-1.651 1.098-14.279-9.483.001-.02a1.885 1.885 0 0 0 -3.769 0c0 1.018.807 1.841 1.816 1.877.022.002.045.009.067.009.264 0 .515-.055.741-.152.01-.004.016-.01.024-.015l.011.009 13.105 8.703.442.293-23.918 15.883c-1.438-1.85-3.966-3.004-7.033-3.004-2.128 0-4.026.638-5.495 1.722l-9.381-6.374c-1.081-.708-3.107.182-4.288 1.987-1.183 1.805-1.072 3.841.008 4.55l10.211 6.421c-3.074.555-5.945 1.95-8.056 4.001-2.316 2.255-3.593 5.173-3.593 8.217 0 .27.023.532.045.796l-7.435 4.937-4.404 2.925 4.404 2.924 11.726 7.787c-3.59.701-5.459 3.373-5.459 6.023 0 3.069 2.589 6.176 7.535 6.176 1.905 0 3.863-.499 5.66-1.425l.366.361c1.299 1.288 2.771 2.748 4.919 3.783.561.27 1.292.566 2.153.813l-9.344 6.346c-.785-.62-1.599-.846-2.132-.496-.829.542-.667 2.251.358 3.818 1.025 1.566 2.527 2.399 3.357 1.856.532-.35.652-1.186.397-2.154l15.063-9.47c.145-.046.29-.103.437-.151l27.389 18.188 1.942 1.29 1.941-1.29 27.485-18.251 15.404 9.685c-.255.969-.138 1.805.396 2.154.827.543 2.33-.289 3.357-1.856 1.026-1.567 1.186-3.276.358-3.818-.533-.35-1.346-.124-2.132.496l-13.553-9.206 7.557-5.019a9.907 9.907 0 0 0 2.775.387c4.72 0 8.947-2.778 11.659-5.105l2.242-1.925-3.341-2.211zm-12.121 8.182.031-.026.036.022 1.571 1.04-.057.05c-2.434 2.088-6.187 4.58-10.24 4.58-1.85 0-3.326-.543-4.216-1.466l-39.373 26.147-25.756-17.102-1.963-1.303c-.514.321-1.086.626-1.718.879a11.65 11.65 0 0 1 -4.349.859c-2.139 0-3.851-.616-4.89-1.117-1.819-.877-3.097-2.144-4.332-3.368-.519-.514-1.053-1.044-1.61-1.524-1.815 1.262-3.928 1.956-5.949 1.956-3.68 0-5.358-2.072-5.358-3.998 0-2.003 1.779-4.029 5.179-4.029 2.564 0 4.461 1.164 5.834 2.192.095-.116.181-.242.271-.372.064-.094.128-.188.199-.282l1.054-1.601-1.814-1.205-17.226-11.438 6.509-4.322 1.815-1.204a7.235 7.235 0 0 1 -.697-3.132c0-2.486 1.014-4.788 2.934-6.654 2.372-2.307 5.885-3.659 9.463-3.659l.295.002c-.446-.777-.68-1.605-.68-2.397a5.31 5.31 0 0 1 1.813-4.027c1.175-1.038 2.806-1.61 4.592-1.61 3.622 0 6.151 1.895 6.151 4.605 0 .415-.076.787-.177 1.139l2.332-1.55 25.818-17.144 1.84-1.222.42-.278 28.69 19.051a5.019 5.019 0 0 1 1.041-1.157l.033-.026.032.022 2.335 1.55-.055.048c-.51.455-.636.962-.652 1.308-.002.027.01.052.011.079l9.045 6.006 3.608-5.25h3.888l-.061.087-1.173 1.72c1.713-1.42 3.323-2.109 4.914-2.109 1.125 0 2.088.496 2.513 1.295.432.817.273 1.854-.446 2.916l-4.741 6.988 2.344 1.557c.879-.577 1.885-1.373 3.026-2.413l.031-.029 1.596 1.06-.053.048a29.095 29.095 0 0 1 -3.012 2.39l9.51 6.316-8.8 5.843c-.048.076-.09.151-.142.229l-.542.788c-1.932 2.812-4.615 3.869-6.892 4.015l-3.92 2.604c.024.073.029.158.065.227.348.655 1.238 1.016 2.511 1.016 2.081-.006 4.829-1.323 7.544-3.62" fill="#e31837"/><path d="m30.465 72.062a14.72 14.72 0 0 1 -.911 1.185l-.069.083c.211.199.414.392.611.576 3.093 2.916 4.646 4.379 8.284 4.565.142.008.281.011.419.011a7.2 7.2 0 0 0 3.017-.652l-2.364-1.57-6.361-4.223-1.812-1.205zm6.881-36.064h.146c0-.002 1.244-.631 1.244-2.129 0-1.106-.863-2.294-2.761-2.294-1.691 0-3.514 1.115-3.514 3.568 0 1.6 1.133 2.549 1.807 2.971l.073.047-.071.049-2.177 1.446-.024-.007c-2.795-.689-6.001.04-8.376 1.9-2.037 1.597-3.207 3.839-3.207 6.151 0 .445.078.892.215 1.329l1.967-1.305 3.163-2.101 4.586-3.045 1.215-.808 6.992-4.642z" fill="#e31837"/><g fill="#fff"><path d="m100.12 35.604c-.057.803.224 1.566.812 2.207l.292.327-.097.111c-1.614 1.922-3.828 4.553-6.219 6.916l-.25.243c-2.983 2.908-6.343 4.715-8.763 4.715-1.272 0-2.166-.36-2.513-1.016-.342-.646-.132-1.566.609-2.658l.338-.51c2.384.815 6.926.508 9.8-3.676l.541-.79c.87-1.253 1.068-2.482.556-3.458-.564-1.08-1.908-1.724-3.595-1.724-2.981 0-5.43 1.267-7.081 3.664l-3.63 5.239-.223.213c-3.252 3.173-5.529 4.715-6.959 4.715-.279 0-.641-.056-.78-.324-.148-.279-.01-.736.395-1.316l8.027-11.775h3.064l1.161-1.628h-3.103l3.474-5.069.062-.088h-3.888l-3.535 5.157h-3.39l-1.161 1.628h3.431l-5.8 8.446-.267.255a22.526 22.526 0 0 1 -4.359 3.338c.535-1.404.77-2.925 1.018-4.53.391-2.537.796-5.159 2.452-7.532l.061-.088h-3.832l-.44.518c-1.806 2.119-4.533 5.322-7.307 8.052l-.251.243c-3.254 3.173-5.531 4.715-6.96 4.715-.277 0-.641-.057-.78-.324-.146-.28-.01-.736.395-1.316l6.061-8.919.061-.087h-2.177c.041-.578-.227-1.231-.739-1.802-.788-.879-1.975-1.383-3.252-1.383-1.96 0-4.812 1.259-6.468 3.664l-5.266 7.645c-.763 1.124-.937 2.269-.474 3.143.482.911 1.604 1.432 3.079 1.432 1.416 0 3.243-.717 5.155-2.021.236 1.25 1.486 2.021 3.287 2.021 1.847 0 3.979-.955 6.513-2.922.262.779 1.266 2.921 4.343 2.922h.01c.335 0 .64-.024.967-.053l.069-.007c.03 0 .056-.01.075-.018.012-.006.025-.013.04-.013 2.09-.232 4.305-1.11 6.587-2.61-.051.653.138 1.238.546 1.698.574.646 1.563 1.002 2.778 1.002 1.974 0 4.276-1.09 7.031-3.335.249 2.03 2.245 3.335 5.125 3.335 4.911 0 9.388-3.657 11.618-5.838l.099-.097h-.003c1.764-1.727 3.16-3.296 6.071-6.626l.46.473c.511.558.584 1.17.211 1.719l-3.966 5.795c-.765 1.124-.938 2.269-.474 3.143.482.911 1.604 1.432 3.079 1.432 1.344 0 2.889-.531 4.596-1.579l-.88 1.277h3.923l5.636-8.257.111-.163c3.981-4.191 6.308-4.987 6.897-4.507.294.241.176.825-.311 1.524l-3.567 5.225-1.303 1.905c-.762 1.124-.936 2.269-.473 3.143.482.911 1.605 1.432 3.08 1.432 1.549 0 3.315-.693 5.335-2.07a29.07 29.07 0 0 0 3.01-2.392l.053-.047-1.596-1.061-.031.029c-1.141 1.04-2.146 1.836-3.026 2.413-1.076.707-1.96 1.075-2.626 1.075-.28 0-.642-.056-.782-.324-.145-.279-.009-.736.395-1.318l.672-.987 4.739-6.989c.722-1.063.88-2.099.446-2.915-.425-.8-1.386-1.297-2.512-1.297-1.589 0-3.2.69-4.914 2.11l1.173-1.719.061-.088h-3.887l-3.609 5.251-2.285 3.323-.247.238c-3.253 3.173-5.528 4.715-6.959 4.715-.279 0-.641-.056-.781-.324-.147-.279-.009-.736.394-1.316l3.753-5.52c1.297-1.91.612-2.837-.668-4.135l-1.883-1.923c-.237-.257-.368-.66-.369-1.064 0-.027-.013-.053-.012-.079.017-.345.144-.853.653-1.309l.054-.048-2.334-1.548-.033-.023-.032.025a5.093 5.093 0 0 0 -1.041 1.159c-.33.506-.535 1.039-.571 1.585m-8.608 5.807-.54.788c-1.91 2.729-4.424 2.397-5.492 2.094l2.373-3.485c1.331-1.923 3.197-2.379 3.951-1.864.593.409.483 1.331-.292 2.467m-48.53 7.071 5.232-7.675c.893-1.302 2.144-1.845 3.101-1.845.39 0 .729.092.977.256.626.416.631 1.237.016 2.192l-2.923 4.307c-2.088 2.758-4.336 4.405-6.015 4.405-.28 0-.642-.056-.782-.324-.147-.278-.01-.735.394-1.316m17.525-2.145.015-.016c1.672-1.622 3.188-3.338 4.407-4.717.25-.283.488-.553.713-.805-.409 1.107-.628 2.391-.842 3.633-.458 2.677-.891 5.206-3.175 5.206h-.075c-1.657-.04-2.123-1.5-2.249-2.161.394-.36.802-.745 1.206-1.14m32.022-37.114-4.554 4.098-.55.271c.887.259 1.285.428 2.024.816l.208-.419c2.074-1.866 3.109-2.8 5.184-4.666l.483-.21a7.523 7.523 0 0 0 -1.004-.681 11.148 11.148 0 0 0 -1.955-.308c-.323.289-.484.436-.806.725.409.132.6.208.97.374m1.902 5.046c.442.378.65.578 1.058.986-.287.261-.432.392-.722.652a13.5 13.5 0 0 0 -.287-.005c-.44-.41-.667-.61-1.146-.985a14.577 14.577 0 0 0 -.217-.385l-1.235 1.116c.888.602 1.286.944 2.063 1.647a30.22 30.22 0 0 1 1.652.06l3.456-3.121a82.5 82.5 0 0 1 .131-1.67 16.63 16.63 0 0 0 -1.22-1.485 22.38 22.38 0 0 0 -1.72-.002l-1.825 1.65c.01.611.011.922.012 1.542m1.575-.776 1.062-.959.28.01c.153.17.229.255.377.428l-.018.279-1.18 1.064a17.183 17.183 0 0 0 -.529-.552zm1.185 4.82-.913.825c1.104 1.084 1.642 1.64 2.906 2.578.379-.343.568-.515.949-.858a19.177 19.177 0 0 1 -.459-.196 17.725 17.725 0 0 1 -1.135-1.037c1.332-.105 1.98-.145 3.283-.224l.955-.862a16.52 16.52 0 0 1 -.071-1.49c-.671-.823-.976-1.267-1.586-2.146l-1.066.962c.157.102.235.155.393.256.371.49.559.733.95 1.205l.002.26-.521.471c-1.44.071-2.167.113-3.687.256m7.629 3.438a8.224 8.224 0 0 1 -.634-.331 6.226 6.226 0 0 1 -.293-.316c-.388.352-.583.526-.972.877.205.06.31.087.52.142.284.148.431.218.737.347.038.072.059.106.097.176-.25.227-.375.341-.625.566l-.31.015a9.61 9.61 0 0 1 -1.658-.802c-.117-.126-.177-.19-.286-.322l-.903.816c1.019.596 1.629.894 3.067 1.276l1.633-.18 1.028-.929a4.34 4.34 0 0 1 -.463-.531c.389-.026.585-.042.981-.075l.786-.71a4.644 4.644 0 0 1 -.639-.976c-1.05-.485-1.498-.795-2.316-1.49l-.901.814c.184.078.278.114.468.188a8.68 8.68 0 0 0 1.358.834l.086.187c-.188.168-.281.252-.468.422zm-60.771-.685a9.106 9.106 0 0 1 -1.686 1.122l-.709-.582a8.967 8.967 0 0 0 1.004-.659c.198-.09.294-.134.485-.227l-.965-.791c-.114.168-.176.25-.301.411a8.321 8.321 0 0 1 -.949.672l-.763-.626c.729-.528 1.387-1.244 1.387-1.244.176-.104.263-.158.434-.267l-.889-.73c-1.153 1.217-1.795 1.934-3.564 2.704l.416.088c1.188.976 1.78 1.466 2.967 2.442-.007.091-.035.231-.047.319 2.14-.558 3.073-1.227 4.37-2.313l-.894-.732a8.416 8.416 0 0 1 -.296.413m.555-4.908-.342-.287.005-.272c.391-.492.579-.741.967-1.236.162-.107.242-.16.407-.266-.443-.372-.663-.558-1.106-.928-.65.896-.956 1.36-1.625 2.244-.01.644-.021.959-.077 1.564.402.339.603.507 1.006.845 1.141-.214 1.704-.327 2.869-.521l.415.349-.021.258c-.446.444-.672.665-1.146 1.087-.182.091-.272.136-.457.223.387.326.58.49.969.814.884-.701 1.282-1.088 2.094-1.85.06-.604.081-.911.119-1.53-.488-.41-.731-.615-1.219-1.023a35.608 35.608 0 0 0 -2.858.529m5.536-6.024c.232-.049.351-.072.591-.112l-1.295-1.091c-1.762.919-2.384 1.596-3.583 2.985l1.143.96c.085-.187.127-.279.214-.463.256-.264.388-.393.661-.642l3.943 3.323c.063.149.096.223.157.371.735-.505 1.122-.743 1.981-1.144l-.539-.208-4.126-3.468c.326-.216.496-.32.853-.511m5.502 3.206c.493-.144.749-.206 1.296-.304.057-.105.087-.157.148-.26-.301-.254-.637-.527-.938-.78a32.934 32.934 0 0 0 -.606-.126 9.845 9.845 0 0 0 -1.265.332c-.04.118-.061.178-.1.298.288.243.619.514.907.756.22.031.331.049.558.084m58.554 56.784c-.035-.068-.04-.153-.064-.227-.201-.63.012-1.456.677-2.433l.336-.509c.782.268 1.797.41 2.907.338 2.276-.146 4.96-1.203 6.892-4.015l.542-.788c.052-.077.094-.152.142-.229.741-1.173.895-2.313.415-3.23-.566-1.079-1.911-1.724-3.598-1.724-2.982 0-5.432 1.267-7.078 3.663l-3.633 5.24-.22.211c-3.253 3.174-5.529 4.717-6.959 4.717-.28 0-.643-.056-.782-.323-.147-.281-.01-.736.395-1.318l8.009-11.8.059-.087h-3.886l-6.686 9.813c-2.585 1.98-4.63 3.146-5.491 3.146a.647.647 0 0 1 -.222-.035c-.185-.065-.297-.167-.342-.308-.134-.429.385-1.155.729-1.637l7.432-10.893.06-.087h-3.886l-5.891 8.571-.249.24c-3.236 3.132-5.804 4.917-8.544 5.933l8.364-12.014h-2.252c-.021-.671-.432-1.411-1.104-1.993-.779-.672-1.802-1.041-2.883-1.041-1.959 0-4.811 1.259-6.466 3.664l-3.572 5.184-.279.268c-3.253 3.174-5.53 4.717-6.958 4.717-.281 0-.644-.056-.782-.323-.148-.281-.01-.736.393-1.318l6.061-8.919.061-.087h-2.174c.039-.578-.228-1.231-.741-1.802-.788-.879-1.973-1.383-3.252-1.383-1.96 0-4.81 1.259-6.466 3.664l-3.569 5.183-.282.269c-2.981 2.909-6.34 4.717-8.763 4.717-1.272 0-2.165-.36-2.512-1.016-.343-.647-.133-1.566.61-2.659l.336-.509c2.386.815 6.926.506 9.801-3.677l.54-.788c.87-1.254 1.067-2.482.557-3.459-.565-1.079-1.91-1.725-3.597-1.725-2.982 0-5.431 1.267-7.079 3.664l-3.934 5.672c-1.062 1.524-1.287 3.054-.633 4.307.746 1.425 2.492 2.242 4.792 2.242 2.444 0 5.051-.903 7.745-2.688-.044.65.146 1.233.556 1.691.574.642 1.559.996 2.771.996 1.416 0 3.243-.718 5.156-2.023.235 1.252 1.483 2.023 3.285 2.023 1.709 0 3.652-.815 5.94-2.49.002.601.214 1.138.617 1.557.588.611 1.525.934 2.711.934.979 0 2.148-.332 3.396-.963l-.903 1.282c-5.55 1.437-8.247 3.219-8.247 5.45 0 1.086.723 1.963 1.934 2.344a4.63 4.63 0 0 0 1.382.201c1.706 0 3.689-.831 5.01-2.727l2.839-4.139c2.706-.713 5.285-1.982 7.873-3.876-.075.66.072 1.229.432 1.646.436.511 1.156.78 2.084.78 2.127 0 4.469-1.656 6.085-2.952-.114.716.04 1.36.454 1.873.564.695 1.572 1.079 2.84 1.079 1.973 0 4.273-1.092 7.03-3.337.089.728.41 1.358.908 1.871.891.923 2.367 1.466 4.216 1.466 4.055 0 7.808-2.492 10.242-4.58l.056-.05-1.572-1.04-.035-.023-.031.027c-2.715 2.297-5.463 3.613-7.542 3.613-1.273.004-2.164-.357-2.513-1.012m-38.55 8.261c0-.924 1.196-1.797 3.559-2.595l-1.605 2.411c-.477.712-1.105.904-1.517.778a.594.594 0 0 1 -.437-.594m-19.142-18.424c.594.409.484 1.331-.29 2.467l-.541.789c-1.911 2.729-4.428 2.398-5.493 2.093l2.373-3.485c1.332-1.923 3.198-2.381 3.951-1.864m5.165 11.179c-.281 0-.644-.056-.782-.323-.149-.281-.011-.736.395-1.318l5.23-7.674c.894-1.302 2.146-1.845 3.103-1.845.39 0 .729.09.976.254.626.417.631 1.238.015 2.194l-2.922 4.307c-2.088 2.758-4.336 4.405-6.015 4.405m17.323-1.642 5.229-7.674c.895-1.302 2.147-1.845 3.104-1.845.39 0 .729.09.976.254.626.417.633 1.238.015 2.194l-2.849 4.184c-2.103 2.836-4.378 4.528-6.087 4.528-.281 0-.643-.056-.782-.323-.15-.281-.011-.736.394-1.318m43.626-9.537c.593.409.482 1.331-.291 2.467l-.542.789c-1.909 2.729-4.423 2.4-5.492 2.093l2.374-3.485c1.332-1.923 3.199-2.381 3.951-1.864"/><path d="m47.029 77.159.042-.048-2.302-1.527-.039-.027-.032.038c-.868 1.012-1.834 1.752-2.884 2.232a7.14 7.14 0 0 1 -3.015.653c-.14 0-.278-.003-.419-.01-3.639-.187-5.191-1.65-8.286-4.565a79.394 79.394 0 0 0 -.611-.575l.07-.086c.305-.366.617-.744.911-1.182l.811-1.231 2.417-3.664c4.932.832 10.048-.915 12.456-4.257.996-1.386 1.461-2.694 1.461-4.116 0-2.757-2.115-4.757-5.033-4.757-2.289 0-4.685 1.427-6.25 3.725l-4.556 6.574c-2.054-.922-3.279-2.57-3.279-4.42 0-.619.154-1.236.457-1.836l.04-.081h-2.911l-.013.037a5.669 5.669 0 0 0 -.354 1.94c0 2.668 1.768 5.021 4.736 6.304l-1.833 2.782-1.055 1.6c-.07.096-.136.19-.197.282-.092.131-.177.258-.272.372-1.373-1.028-3.272-2.192-5.835-2.192-3.399 0-5.177 2.027-5.177 4.03 0 1.925 1.676 3.998 5.356 3.998 2.023 0 4.135-.695 5.95-1.957.559.481 1.092 1.013 1.611 1.524 1.234 1.226 2.512 2.492 4.33 3.368a11.34 11.34 0 0 0 4.891 1.117c1.308 0 2.776-.229 4.349-.858a11.06 11.06 0 0 0 1.719-.879 12.573 12.573 0 0 0 2.746-2.308m-21.972-3.823c-1.152.86-2.455 1.277-3.982 1.277-1.457 0-2.109-.718-2.109-1.431 0-.737.677-1.521 1.929-1.521 1.208.001 2.569.549 4.162 1.675m10.084-8.221 4.092-5.956c1.023-1.472 2.21-2.28 3.345-2.28 1.614 0 1.978 1.025 2.001 1.887.033 1.42-.586 2.816-1.747 3.934-1.778 1.711-4.575 2.584-7.691 2.415m-7.676-9.29c5.095 0 8.684-2.979 9.864-5.746.937-2.197.526-4.445-1.126-6.165l-.032-.034-2.166 1.439-.052.033.039.048c.918 1.154 1.041 2.654.339 4.111-.915 1.895-3.313 3.808-6.613 3.808-3.797 0-6.305-2.011-7.017-4.288a4.424 4.424 0 0 1 -.215-1.329c0-2.314 1.169-4.556 3.207-6.152 2.375-1.859 5.581-2.59 8.376-1.9l.023.007 2.176-1.447.074-.047-.075-.047c-.675-.424-1.806-1.371-1.806-2.972 0-2.452 1.822-3.568 3.514-3.568 1.896 0 2.759 1.19 2.759 2.294 0 1.498-1.243 2.126-1.242 2.13h-.146l1.276 1.131.854.755.03.027.035-.021c.02-.012 1.537-.975 2.049-2.731a3.99 3.99 0 0 0 .179-1.139c0-2.713-2.529-4.605-6.152-4.605-1.787 0-3.416.572-4.591 1.609a5.305 5.305 0 0 0 -1.813 4.027c0 .793.234 1.62.679 2.398-.099-.003-.196-.003-.294-.003-3.579 0-7.09 1.352-9.462 3.659-1.921 1.866-2.936 4.168-2.936 6.653 0 1.135.248 2.187.697 3.132 1.431 3.01 4.968 4.933 9.568 4.933"/></g></svg>