<svg enable-background="new 0 0 122 112.1" height="302.979991" viewBox="0 0 122 112.1" width="330.054799" xmlns="http://www.w3.org/2000/svg" xmlns:xlink="http://www.w3.org/1999/xlink"><linearGradient id="a" gradientUnits="userSpaceOnUse" x1="5.342" x2="111.2403" y1="95.0026" y2="95.0026"><stop offset="0" stop-color="#fff" stop-opacity="0"/><stop offset=".006413304" stop-color="#efeff0" stop-opacity=".047917"/><stop offset=".01924694" stop-color="#d5d6d7" stop-opacity=".1438"/><stop offset=".03340012" stop-color="#c0c2c4" stop-opacity=".2496"/><stop offset=".04937132" stop-color="#b2b4b6" stop-opacity=".3689"/><stop offset=".06866445" stop-color="#aaacae" stop-opacity=".513"/><stop offset=".1004" stop-color="#a7a9ac" stop-opacity=".75"/><stop offset=".7895" stop-color="#a7a9ac" stop-opacity=".75"/><stop offset=".9004" stop-color="#a7a9ac" stop-opacity=".75"/><stop offset=".9325" stop-color="#aaacae" stop-opacity=".5084"/><stop offset=".9515" stop-color="#b2b4b6" stop-opacity=".3649"/><stop offset=".9672" stop-color="#c0c2c3" stop-opacity=".2472"/><stop offset=".981" stop-color="#d4d5d6" stop-opacity=".1434"/><stop offset=".9934" stop-color="#eeeeef" stop-opacity=".049586"/><stop offset="1" stop-color="#fff" stop-opacity="0"/></linearGradient><linearGradient id="b" gradientUnits="userSpaceOnUse" x1=".09851" x2="116.6808" y1="55.5938" y2="55.5938"><stop offset="0" stop-color="#fff" stop-opacity="0"/><stop offset=".009605277" stop-color="#efeff0" stop-opacity=".047917"/><stop offset=".02882636" stop-color="#d5d6d7" stop-opacity=".1438"/><stop offset=".05002374" stop-color="#c0c2c4" stop-opacity=".2496"/><stop offset=".07394398" stop-color="#b2b4b6" stop-opacity=".3689"/><stop offset=".1028" stop-color="#aaacae" stop-opacity=".513"/><stop offset=".1503" stop-color="#a7a9ac" stop-opacity=".75"/><stop offset=".7546" stop-color="#a7a9ac" stop-opacity=".75"/><stop offset=".8518" stop-color="#a7a9ac" stop-opacity=".75"/><stop offset=".8995" stop-color="#aaacae" stop-opacity=".5084"/><stop offset=".9279" stop-color="#b2b4b6" stop-opacity=".3649"/><stop offset=".9511" stop-color="#c0c2c3" stop-opacity=".2472"/><stop offset=".9717" stop-color="#d4d5d6" stop-opacity=".1434"/><stop offset=".9902" stop-color="#eeeeef" stop-opacity=".049586"/><stop offset="1" stop-color="#fff" stop-opacity="0"/></linearGradient><path d="m37.9 89.8c.3.9.6 1.8.9 2.7 1-.1 1.9-.1 2.9-.2-.8.6-1.6 1.2-2.3 1.8.3.9.6 1.8.9 2.7-.8-.5-1.6-1-2.3-1.6-.8.6-1.6 1.2-2.3 1.8.3-.9.6-1.9.9-2.8-.8-.5-1.6-1-2.3-1.5 1-.1 1.9-.1 2.9-.2.1-.9.4-1.8.7-2.7zm-15.3 4c-1 .1-1.9.2-2.9.3.8.5 1.6 1 2.3 1.4-.3.9-.6 1.9-.9 2.8.8-.6 1.6-1.3 2.3-1.9.8.5 1.6 1 2.3 1.5-.3-.9-.6-1.8-.9-2.6.8-.6 1.6-1.3 2.3-1.9-1 .1-1.9.2-2.9.3-.3-.9-.6-1.8-.9-2.6-.1.8-.4 1.7-.7 2.7zm-14.4 1.8c-1 .1-1.9.3-2.9.4.8.4 1.5.9 2.3 1.3-.3 1-.6 1.9-.9 2.9.8-.7 1.5-1.4 2.3-2 .8.5 1.5.9 2.3 1.4-.3-.9-.6-1.7-.9-2.6.8-.7 1.5-1.3 2.3-2-1 .1-1.9.3-2.9.4-.3-.9-.6-1.7-.9-2.6-.1.9-.4 1.8-.7 2.8zm98.4-.3c-1-.1-1.9-.3-2.9-.4.8.7 1.5 1.3 2.3 2-.3.9-.6 1.7-.9 2.6.8-.5 1.5-.9 2.3-1.4.8.7 1.5 1.4 2.3 2-.3-1-.6-1.9-.9-2.9.8-.4 1.5-.9 2.3-1.3-1-.2-1.9-.3-2.9-.4-.3-1-.6-1.9-.9-2.9-.1 1-.4 1.9-.7 2.7zm-14.4-1.7c-1-.1-1.9-.2-2.9-.3.8.6 1.6 1.3 2.3 1.9-.3.9-.6 1.8-.9 2.6.8-.5 1.6-1 2.3-1.5.8.6 1.6 1.3 2.3 1.9-.3-.9-.6-1.9-.9-2.8.8-.5 1.6-1 2.3-1.4-1-.1-1.9-.2-2.9-.3-.3-.9-.6-1.9-.9-2.8-.1.9-.4 1.8-.7 2.7zm-14.4-1.2c-1-.1-1.9-.1-2.9-.2.8.6 1.6 1.2 2.3 1.8-.3.9-.6 1.8-.9 2.7.8-.5 1.6-1 2.3-1.6.8.6 1.6 1.2 2.3 1.8-.3-.9-.6-1.9-.9-2.8.8-.5 1.6-1 2.3-1.5-1-.1-1.9-.1-2.9-.2-.3-.9-.6-1.9-.9-2.8-.1 1.1-.4 1.9-.7 2.8z" fill="url(#a)"/><path d="m17.9 23c-.1 0-.1-.1 0 0-5.9.2-11.7.6-17.5 1.1v4.6c.7.2 1.5.5 2.2.7v19.6c-.7.4-1.5.7-2.2 1.1v4.6c5.8-.5 11.6-.8 17.4-1.2 1.4-1.3 2.8-2.7 4.2-4 0 0 .1-.1.1-.1 0-7.7 0-15.3 0-23-1.4-1.1-2.8-2.2-4.2-3.4zm-8.8 25.3c0-6.4 0-12.7 0-19.1 2-.1 4-.3 6.1-.4.2.1.3.3.5.4v18.2c-.2.2-.3.3-.5.5-2.1.1-4.1.3-6.1.4zm76.8-20.2c.4 1.1.8 2.1 1.2 3.2 1.7.1 3.3.1 5 .2 0-3 0-5.9 0-8.9-7.2-.3-14.5-.6-21.7-.7v4.6c.7.3 1.5.6 2.2 1v19.6c-.6.2-1.3.5-1.9.7-.7-.3-1.3-.6-2-.8-1.6-8.3-3.1-16.7-4.7-25v-.1c-3.8 0-7.6 0-11.3 0-1.6 8.4-3.1 16.8-4.7 25.2-.5.2-.9.4-1.4.6-.5-.2-1.1-.4-1.6-.6-.9-2.6-1.8-5.2-2.7-7.8 1-.9 2-1.8 3-2.7 0 0 .1 0 .1-.1 0-3.5 0-7.1 0-10.6-1.4-1.2-2.8-2.5-4.2-3.7-5.8.1-11.7.3-17.5.6v4.6c.8.3 1.5.5 2.3.8v19.6c-.8.3-1.5.7-2.3 1v4.6c3.7-.2 7.3-.3 11-.4 0-1.5 0-3.1 0-4.6-.7-.3-1.5-.6-2.2-.8 0-2.3 0-4.6 0-6.9 1.2 0 2.4-.1 3.5-.1.8 2.3 1.6 4.7 2.4 7-.6.3-1.2.5-1.8.8v4.6c6.7-.2 13.4-.3 20.1-.3 0-1.5 0-3.1 0-4.6-.7-.3-1.4-.6-2.1-.9.2-.8.3-1.6.5-2.3h6.7c.1.8.3 1.6.4 2.3-.7.3-1.4.6-2.1.9v4.6c7.1 0 14.2.1 21.3.4 0-1.5 0-3.1 0-4.6-.8-.3-1.5-.7-2.3-1 0-2.4 0-4.8 0-7.2 1.1 0 2.1.1 3.2.1.3.7.7 1.3 1 2 1.4 0 2.7.1 4.1.1 0-3.1 0-6.1 0-9.2-1.4-.1-2.7-.1-4.1-.1-.3.7-.7 1.3-1 2-1.1 0-2.1-.1-3.2-.1 0-2.3 0-4.6 0-6.9 2.3-.3 4.6-.2 6.8-.1zm-46.9 5.9c-.2.2-.3.3-.5.5-2 .1-4 .1-6.1.2 0-2.2 0-4.4 0-6.6 2-.1 4-.1 6.1-.2.2.1.3.3.5.4zm17.1 4.8c.7-3.8 1.4-7.5 2.1-11.2h.4c.7 3.7 1.4 7.5 2.1 11.2-1.5 0-3.1 0-4.6 0zm60.3-14.7v9.2c-1.7-.1-3.3-.3-5-.4-.4-1.2-.8-2.3-1.2-3.5-.7 0-1.3-.1-2-.1v19.3c.8.4 1.5.7 2.3 1.1v4.6c-3.7-.3-7.3-.5-11-.7 0-1.5 0-3.1 0-4.6.7-.3 1.5-.5 2.2-.8 0-6.4 0-12.9 0-19.3-.7 0-1.3-.1-2-.1-.4 1.1-.8 2.2-1.2 3.4-1.7-.1-3.3-.2-5-.3 0-3.1 0-6.1 0-9.2 7.7.3 15.3.8 22.9 1.4zm-98.7 54.1v8.8c-5.9.6-11.7 1.4-17.6 2.3 0-1.5 0-3 0-4.6.7-.4 1.3-.8 2-1.2 0-6.5 0-12.9 0-19.4-.7-.2-1.3-.5-2-.7 0-1.5 0-3 0-4.6 3.2-.2 6.4-.5 9.5-.7v4.5c-.6.3-1.3.7-1.9 1v18.8c1.5-.2 3.1-.4 4.6-.5.4-1.1.7-2.3 1.1-3.4 1.4 0 2.8-.2 4.3-.3zm79-20.5v4.4c-.6.3-1.3.5-1.9.8v20.2s0 0-.1.1c-1.2 1.1-2.5 2.1-3.7 3.2-3.2-.3-6.3-.5-9.5-.7-1.3-1.3-2.5-2.5-3.8-3.7 0-6.6 0-13.2 0-19.7-.7-.3-1.3-.6-2-.9 0-1.4 0-2.8 0-4.2 3.2.1 6.4.2 9.6.3v4.3c-.7.3-1.3.5-2 .8v17.6c.2.1.3.3.5.4 1.6.1 3.2.2 4.9.3.1-.1.3-.3.4-.4 0-5.9 0-11.8 0-17.7-.6-.3-1.3-.6-1.9-.9 0-1.4 0-2.9 0-4.3 3.1-.2 6.3-.1 9.5.1zm8.7 6.1v6.7l2.7.3c.3-.6.6-1.2.9-1.9 1.2.1 2.4.2 3.5.3v9c-1.2-.1-2.4-.3-3.5-.4 0 0 0-.1-.1-.1-.3-.6-.6-1.3-.9-1.9-.9-.1-1.8-.2-2.7-.3v6.7c2 .2 3.9.5 5.9.7.4-1 .7-1.9 1.1-2.9 1.4.2 2.9.4 4.3.6v8.8c-6.3-1-12.6-1.8-18.9-2.5 0-1.5 0-2.9 0-4.4.7-.2 1.3-.5 2-.7 0-6.2 0-12.5 0-18.7-.7-.3-1.3-.7-2-1 0-1.5 0-2.9 0-4.4 6.3.3 12.6.7 18.9 1.2v8.8c-1.4-.1-2.9-.3-4.3-.4 0-.1 0-.1-.1-.2-.3-1-.7-2-1-3-1.9 0-3.8-.2-5.8-.3zm-42.3-1.8c2 0 4.1 0 6.1.1.3.8.7 1.6 1 2.4 0 0 0 .1.1.1 1.4 0 2.9.1 4.3.1 0-2.6 0-5.2 0-7.9-4.6-.1-9.2-.2-13.8-.2-1.2 1.1-2.5 2.3-3.7 3.4 0 0 0 0-.1.1v20.4h-.1c-.6-.3-1.3-.5-1.9-.8-1.3-7.6-2.7-15.2-4-22.8 0-.1 0-.1 0-.2-3.3 0-6.6.1-9.9.2-1.3 7.7-2.7 15.4-4 23.2-3.5.2-7.1.4-10.6.7 0-2.2 0-4.3 0-6.5.9-.1 1.8-.1 2.8-.2.3.6.6 1.1.9 1.7 0 0 0 .1.1.1 1.2-.1 2.4-.1 3.5-.2 0-2.9 0-5.7 0-8.6-1.2.1-2.4.1-3.6.2-.3.6-.6 1.3-.9 1.9-.9.1-1.8.1-2.8.2 0-2.2 0-4.3 0-6.5 2-.1 3.9-.2 5.9-.3.3.9.7 1.8 1 2.7 0 0 0 .1.1.1 1.4-.1 2.9-.1 4.3-.2 0-2.8 0-5.5 0-8.3-6.3.2-12.6.4-18.9.8v4.4c.7.3 1.3.5 2 .8v18.6c-.7.4-1.3.7-2 1.1v4.4c8.6-.9 17.2-1.5 25.8-1.9 0-1.4 0-2.8 0-4.2-.6-.2-1.2-.5-1.9-.7.1-.7.3-1.4.4-2.2 2-.1 3.9-.1 5.9-.2.1.7.3 1.4.4 2.1-.6.3-1.2.6-1.9.9v4.2c9.1-.3 18.1-.2 27.2.2 0-5.3 0-10.7 0-16-2.8-.1-5.3-.2-7.8-.2v4.2c.6.3 1.3.6 1.9.9v5.6c-2-.1-3.9-.1-5.9-.1-.1-.1-.3-.3-.4-.4 0-5.6 0-11.1 0-16.7.2-.2.3-.4.5-.5zm-19.1 10.5c.6-3.5 1.2-6.9 1.8-10.4h.3c.6 3.4 1.2 6.9 1.8 10.3-1.3.1-2.6.1-3.9.1z" fill="url(#b)"/><path d="m37.9 89.1c.3.9.6 1.8.9 2.7 1 0 1.9-.1 2.9-.1-.8.6-1.6 1.2-2.3 1.8.3.9.6 1.8.9 2.7-.8-.5-1.6-1.1-2.3-1.6-.8.6-1.6 1.2-2.3 1.8.3-.9.6-1.8.9-2.8-.8-.5-1.6-1.1-2.3-1.6 1 0 1.9-.1 2.9-.1.1-1 .4-1.9.7-2.8z" fill="#bc0022"/><path d="m23.5 89.7c.3.9.6 1.8.9 2.7 1 0 1.9-.1 2.9-.1-.8.6-1.6 1.2-2.3 1.8.3.9.6 1.8.9 2.7-.8-.5-1.6-1.1-2.3-1.6-.8.6-1.6 1.2-2.3 1.8.3-.9.6-1.9.9-2.8-.8-.5-1.6-1-2.3-1.6 1-.1 1.9-.1 2.9-.2.1-.9.4-1.8.7-2.7z" fill="#bc0022"/><path d="m9.1 90.6c.3.9.6 1.8.9 2.7 1-.1 1.9-.1 2.9-.2-.8.6-1.6 1.2-2.3 1.9l.9 2.7c-.8-.5-1.6-1-2.3-1.5-.8.6-1.5 1.2-2.3 1.9.2-1.1.5-2.1.8-3-.8-.5-1.5-1-2.3-1.5 1-.1 1.9-.1 2.9-.2.2-1 .5-1.9.8-2.8z" fill="#bc0022"/><path d="m107.5 90.6c.3.9.6 1.9.9 2.8 1 .1 1.9.1 2.9.2-.8.5-1.5 1-2.3 1.5.3.9.6 1.9.9 2.8-.8-.6-1.5-1.2-2.3-1.9-.8.5-1.6 1-2.3 1.5.3-.9.6-1.8.9-2.7-.8-.6-1.6-1.2-2.3-1.9 1 .1 1.9.1 2.9.2.1-.7.4-1.6.7-2.5z" fill="#bc0022"/><path d="m93.1 89.7c.3.9.6 1.9.9 2.8 1 .1 1.9.1 2.9.2-.8.5-1.6 1-2.3 1.6.3.9.6 1.9.9 2.8-.8-.6-1.6-1.2-2.3-1.8-.8.5-1.6 1-2.3 1.6.3-.9.6-1.8.9-2.7-.8-.6-1.6-1.2-2.3-1.8 1 0 1.9.1 2.9.1.1-1 .4-1.9.7-2.8z" fill="#bc0022"/><path d="m78.7 89.1c.3.9.6 1.8.9 2.8 1 0 1.9.1 2.9.1-.8.5-1.6 1.1-2.3 1.6.3.9.6 1.8.9 2.8-.8-.6-1.6-1.2-2.3-1.8-.8.5-1.6 1.1-2.3 1.6.3-.9.6-1.8.9-2.7-.8-.6-1.6-1.2-2.3-1.8 1 0 1.9 0 2.9.1.1-.9.4-1.8.7-2.7z" fill="#bc0022"/><g fill="#041e42"><path d="m49.6 92.5h.9c.4 0 .6.3.6.6s-.2.6-.6.6h-.5v.6h-.4zm.8.3h-.4v.4h.4c.1 0 .2-.1.2-.2s-.1-.2-.2-.2z"/><path d="m52.2 92.4c.5 0 .9.4.9.9s-.4.9-.9.9-.9-.4-.9-.9c-.1-.5.3-.9.9-.9zm0 .4c-.3 0-.5.2-.5.5s.2.5.5.5.5-.2.5-.5-.2-.5-.5-.5z"/><path d="m54.4 93.1-.3 1.1h-.5l-.5-1.7h.5l.3 1.2.3-1.2h.3l.3 1.2.3-1.2h.5l-.5 1.7h-.5z"/><path d="m55.9 92.5h1.3v.4h-.8v.3h.8v.4h-.8v.3h.8v.4h-1.3z"/><path d="m58.2 93.6h-.2v.6h-.4v-1.7h.9c.4 0 .6.3.6.6s-.2.5-.3.5l.4.6h-.5zm.1-.8h-.4v.4h.4c.1 0 .2-.1.2-.2s-.1-.2-.2-.2z"/><path d="m59.3 92.5h1.3v.4h-.8v.3h.8v.4h-.8v.3h.8v.4h-1.3z"/><path d="m60.9 92.5h.7c.5 0 .9.3.9.9s-.4.9-.9.9h-.7zm.7 1.3c.3 0 .5-.2.5-.5s-.2-.5-.5-.5h-.3v1z"/><path d="m63.6 92.5h1c.3 0 .5.2.5.4s-.1.4-.3.4c.2 0 .3.2.3.4 0 .3-.2.5-.5.5h-1zm.9.6c.1 0 .2-.1.2-.2s-.1-.1-.2-.1h-.4v.3zm0 .7c.1 0 .2-.1.2-.2s-.1-.2-.2-.2h-.5v.3h.5z"/><path d="m65.9 93.5-.7-1h.5l.4.6.4-.6h.5l-.7 1v.7h-.5v-.7z"/><path d="m17.8 20.8-17.5-.1v4.6l2.2.9v19.6l-2.2.9v4.6h17.4l4.2-3.8.1-.1v-23zm-8.8 24.8v-19.1h6l.5.4v18.2l-.5.5z"/><path d="m85.8 26.5 1.2 3.1h5v-8.9h-21.7v4.6l2.2.9v19.6l-1.9.8-2-.8-4.7-25v-.1h-11.3l-4.6 25.1-1.4.6-1.6-.7-2.7-7.9 3-2.7.1-.1v-10.5l-4.2-3.8h-17.6v4.6l2.3.9v19.6l-2.3.9v4.6h11v-4.6l-2.2-.9v-6.9h3.5l2.4 7.1-1.8.7v4.6h20.1v-4.6l-2.1-.9.5-2.3h6.7l.4 2.3-2.1 1v4.6h21.3v-4.6l-2.3-.9v-7.2h3.2l1 2h4.1v-9.2h-4.1l-1 2h-3.2v-6.9h6.8zm-46.9 6.2-.5.4h-6.1v-6.6h6.1l.5.4zm17.1 5.1 2.1-11.2h.4l2.1 11.2z"/><path d="m93.4 20.7v9.2h5l1.2-3.4h2v19.4l-2.2.9v4.6h11v-4.6l-2.3-.9v-19.4h2l1.3 3.4h4.9v-9.2z"/><path d="m13.3 76.2c-.4 1.1-.7 2.2-1.1 3.4-1.5.1-3.1.2-4.6.2 0-6.3 0-12.6 0-18.8.6-.3 1.3-.6 1.9-.9 0-1.5 0-3 0-4.5-3.2 0-6.4 0-9.5 0v4.6c.7.3 1.3.6 2 .9v19.3c-.7.3-1.3.7-2 1v4.6c5.9-.5 11.7-.9 17.6-1.2 0-2.9 0-5.9 0-8.8-1.5.1-2.9.1-4.3.2z"/><path d="m87 55.6v4.3c.6.3 1.3.6 1.9.9v17.7c-.1.1-.3.3-.4.4-1.6-.1-3.2-.1-4.9-.1-.2-.1-.3-.3-.5-.4 0-5.9 0-11.7 0-17.6.7-.3 1.3-.6 2-.8 0-1.4 0-2.9 0-4.3-3.2 0-6.4 0-9.6 0v4.2c.7.3 1.3.6 2 .9v19.7c1.3 1.2 2.5 2.4 3.8 3.6 3.2.1 6.3.2 9.5.4 1.2-1.1 2.5-2.2 3.7-3.4 0 0 0 0 .1-.1 0-6.7 0-13.5 0-20.2.6-.3 1.3-.6 1.9-.9 0-1.5 0-2.9 0-4.4-3.1.1-6.3.1-9.5.1z"/><path d="m111.2 61.3c.3 1 .7 2 1 2.9 0 0 0 .1.1.1 1.4 0 2.9.1 4.3.1 0-2.9 0-5.9 0-8.8-6.3 0-12.6 0-18.9 0v4.4c.7.3 1.3.6 2 .9v18.7c-.7.3-1.3.5-2 .8v4.4c6.3.3 12.6.7 18.9 1.2 0-2.9 0-5.9 0-8.8-1.4-.1-2.9-.2-4.3-.2-.4 1-.7 2-1.1 3-2-.1-3.9-.2-5.9-.3 0-2.2 0-4.5 0-6.7.9 0 1.8.1 2.8.1.3.6.6 1.2.9 1.8 0 0 0 .1.1.1 1.2.1 2.4.1 3.5.2 0-3 0-6 0-9-1.2 0-2.4-.1-3.5-.1-.3.6-.6 1.3-.9 1.9-.9 0-1.8-.1-2.8-.1 0-2.2 0-4.5 0-6.7 1.9 0 3.8 0 5.8.1z"/><path d="m63 60.9h6.1c.3.8.7 1.6 1 2.4 0 0 0 .1.1.1h4.3c0-2.6 0-5.2 0-7.9-4.6 0-9.2 0-13.8 0-1.2 1.1-2.5 2.3-3.7 3.4 0 0 0 0-.1.1v20.4h-.1c-.6-.3-1.3-.5-1.9-.8-1.3-7.6-2.7-15.2-4-22.9 0-.1 0-.1 0-.2-3.3 0-6.6 0-9.9 0-1.3 7.7-2.7 15.3-4 23.1-3.5.1-7.1.2-10.6.3 0-2.2 0-4.3 0-6.5.9 0 1.8 0 2.8-.1.3.6.6 1.1.9 1.7 0 0 0 .1.1.1 1.2 0 2.4-.1 3.5-.1 0-2.9 0-5.7 0-8.6-1.2 0-2.4 0-3.6 0-.3.6-.6 1.3-.9 1.9-.9 0-1.8 0-2.8 0 0-2.2 0-4.3 0-6.5h5.9c.3.9.7 1.8 1 2.8 0 0 0 .1.1.1h4.3c0-2.8 0-5.5 0-8.3-6.3 0-12.6 0-18.9 0v4.4c.7.3 1.3.6 2 .9v18.6c-.7.3-1.3.6-2 1v4.4c8.6-.5 17.2-.8 25.7-.9 0-1.4 0-2.8 0-4.2-.6-.3-1.2-.5-1.9-.8.1-.7.3-1.4.4-2.2 2 0 3.9-.1 5.9-.1.1.7.3 1.4.4 2.1-.6.3-1.2.6-1.9.8v4.2c9-.1 18.1-.1 27.1.1 0-5.3 0-10.7 0-16-2.5 0-5.1 0-7.6-.1v4.2c.6.3 1.3.6 1.9.9v5.6c-2 0-3.9 0-5.9 0-.1-.1-.3-.3-.4-.4 0-5.6 0-11.1 0-16.7.2 0 .3-.1.5-.3zm-19.1 10.4c.6-3.5 1.2-6.9 1.8-10.4h.3c.6 3.5 1.2 6.9 1.8 10.3-1.2.1-2.6.1-3.9.1z"/></g><path d="m49.1.5c-.3-.3-.8-.5-1.3-.5h-28.8c-.5 0-1 .2-1.3.5-.4.4-.5.8-.5 1.3v12.9c0 .5.2 1 .5 1.3.4.4.8.6 1.3.6h28.8c1 0 1.9-.8 1.9-1.9v-12.8c0-.5-.2-1-.6-1.4z" fill="#fff"/><path d="m49.7 1.9c0-.5-.2-1-.5-1.3-.4-.4-.9-.6-1.4-.6h-8l4.6 7.7.4.1.2.3v.3l.3.1.3.4v.3l.3.1.3.3v.7s.7.6 1.2.8c.4.2.5.8.7 1.2.3.5.7.7.6 1-.2.8-1 2-1.7 2.1h-2.9v1.2h3.6c1 0 1.9-.8 1.9-1.9v-12.8" fill="#bc0022"/><path d="m30 15.4h-1.4c0-3.5 1.2-5.4 2.6-5.7.2 0 .1-1-.1-1.3 0 0-.7 0-.8 0-.2 0-.1-.2-.1-.2l.7-1.4-.1-.4h-2.4l2-1.4c.1-3.7 3.9-4 6.1-2.4 1.3.9 1.5 2.7 1.3 3.9 0 .1-.4 0-.4 0s-.2 1.3.4 1.3h2.6c1.1 0 2.1.7 2.1.7l.3-.9-5.8-7.6h-18c-.5 0-1 .2-1.3.5-.4.4-.5.8-.5 1.3v12.9c0 .5.2 1 .5 1.3.4.4.8.6 1.3.6h11.7c-.3-.5-.6-1-.7-1.2" fill="#041e42"/><path d="m19.7 12.7c0-.7.6-1.3 1.3-1.3s1.3.6 1.3 1.3-.6 1.3-1.3 1.3c-.7-.1-1.3-.6-1.3-1.3" fill="#fff"/><path d="m50.6 16.2c0-.1-.1-.2-.2-.2h-.2v.5h.1v-.2h.1l.1.2h.1l-.1-.2c0 .1.1 0 .1-.1m-.2.1h-.1v-.1h.1s.1 0 0 .1z" fill="#bc0022"/><path d="m50.3 15.9c-.3 0-.5.2-.5.5s.2.5.5.5.5-.2.5-.5-.2-.5-.5-.5m0 .8c-.2 0-.4-.2-.4-.4s.2-.4.4-.4.4.2.4.4c0 .3-.2.4-.4.4" fill="#bc0022"/><path d="m97.1 7.6c.9-.5 1.7-1.8 1.7-3 0-2.6-2.1-4.6-5.1-4.6h-7.6v16.6h7.7c3.1 0 5.7-1.6 5.7-4.9 0-2.1-.9-3.4-2.4-4.1zm-7.6-1.1v-3.4h4.4c.9 0 1.7.8 1.7 1.7s-.8 1.7-1.7 1.7zm0 6.9v-3.9h4.5c1.1 0 2 .9 2 2s-.9 2-2 2h-4.5z" fill="#041e42"/><path d="m66.5 0-5.3 9-5.4-9h-3.4v16.6h3.4v-9.9l4.4 7.3h1.9l4.4-7.3v9.9h3.4v-16.6z" fill="#041e42"/><path d="m76 0h-3.4v16.6h11v-3.4h-7.6z" fill="#041e42"/><path d="m100.7 15.7-.3.4-.3-.4h-.2v.9h.2v-.6l.2.4h.2l.2-.4v.6h.2v-.9z" fill="#041e42"/><path d="m99.8 15.7h-.7v.1h.2v.8h.2v-.8h.3z" fill="#041e42"/><path d="m121.5 83.9-.6 1.1-.6-1.1h-.4v2h.4v-1.2l.5.9h.2l.5-.9v1.2h.4v-2z" fill="#041e42"/><path d="m119.6 83.9h-1.5v.4h.6v1.6h.4v-1.6h.5z" fill="#041e42"/><path d="m43.8 102.1c0-.1-.1-.1-.1-.2v3.7l.9.9v-3.8c-.4-.2-.6-.4-.8-.6z" fill="#231f20"/><path d="m45 107 .9.9v-4.5c-.3-.1-.6-.2-.9-.3z" fill="#231f20"/><path d="m46.4 103.4v4.9l.4.4.4-.4v-4.9c-.1 0-.3 0-.4 0s-.3 0-.4 0z" fill="#231f20"/><path d="m47.7 107.9.9-.9v-4c-.3.1-.6.2-.9.3z" fill="#231f20"/><path d="m49.8 102.1c-.2.2-.4.5-.7.6v3.8l.9-.9v-3.7c-.1.1-.1.1-.2.2z" fill="#231f20"/><path d="m48.6 97.7s-.1-.1-.1-.1c-.1-.1-.3-.3-.5-.4-.5.6-.8 1.3-.8 2.1s.3 1.5.8 2.1c.2-.1.3-.2.5-.4 0 0 .1-.1.1-.1-.4-.4-.6-1-.6-1.6s.2-1.1.6-1.6z" fill="#ef3e42"/><path d="m45.6 97.2c-.2.1-.3.2-.5.4 0 0-.1.1-.1.1.4.4.6 1 .6 1.6s-.2 1.2-.6 1.6c0 0 .1.1.1.1.1.1.3.3.5.4.5-.6.8-1.3.8-2.1-.1-.8-.4-1.5-.8-2.1z" fill="#ef3e42"/><path d="m49.2 97.2c-.2-.2-.4-.4-.6-.5-.5-.4-1.1-.6-1.8-.6s-1.3.2-1.8.6c-.2.1-.4.3-.6.5-.5.6-.8 1.3-.8 2.1s.3 1.5.8 2.1c.2.2.4.4.6.5.5.4 1.1.6 1.8.6s1.3-.2 1.8-.6c.2-.1.4-.3.6-.5.5-.6.8-1.3.8-2.1s-.3-1.5-.8-2.1zm-.6 3.7s-.1.1-.1.1c-.1.1-.3.3-.5.4-.4.2-.8.3-1.3.3-.4 0-.9-.1-1.3-.3-.2-.1-.3-.2-.5-.4 0 0-.1-.1-.1-.1-.4-.4-.6-1-.6-1.6s.2-1.2.6-1.6c0 0 .1-.1.1-.1.1-.1.3-.3.5-.4.4-.2.8-.3 1.3-.3.4 0 .9.1 1.3.3.2.1.3.2.5.4 0 0 .1.1.1.1.4.4.6 1 .6 1.6s-.2 1.2-.6 1.6z" fill="#211e1f"/><path d="m52.6 97.7h1.8c.3 0 .5.2.5.5v1.7c0 .3-.2.5-.5.5h-1v.9h-.8zm1.5 1.9v-1.2h-1.1c.2 0 .4.2.4.4v.8z" fill="#ef3e42"/><path d="m55.4 97.7h1.8c.3 0 .5.2.5.5v1.6c0 .2-.1.3-.3.4l.3 1h-.8l-.3-1h-.5v1h-.8v-3.5zm1.5 1.9v-1.1h-1.1c.2 0 .4.2.4.4v.7z" fill="#ef3e42"/><path d="m58.2 97.7h2v.7h-1.6c.2 0 .4.2.4.4v.3h.8l-.2.7h-.6v.7h1.2v.7h-2z" fill="#ef3e42"/><path d="m60.6 97.7h1.8c.3 0 .5.2.5.5v1.7c0 .3-.2.5-.5.5h-1v.9h-.8zm1.5 1.9v-1.2h-1.1c.2 0 .4.2.4.4v.8z" fill="#ef3e42"/><path d="m52.6 102.1h1.8c.3 0 .5.2.5.5v.9c0 .2-.1.4-.3.4.2.1.3.2.3.4v.9c0 .3-.2.5-.5.5h-1.8zm1.5 1.4v-.7h-1.1c.2 0 .4.2.4.4v.3zm0 1.4v-.7h-.7v.7z" fill="#ef3e42"/><path d="m55.8 102.7-.1-.6h1.4l.7 3.5h-.8l-.1-.7h-1.2c.2 0 .4.2.3.4l-.1.3h-.8zm1 1.5-.2-1.4-.3 1.4z" fill="#ef3e42"/><path d="m58.2 105.2v-.5l.8-.2v.4h.6v-.6l-1.1-.4c-.2-.1-.3-.2-.3-.4v-.9c0-.3.2-.5.5-.5h1.2c.3 0 .5.2.5.5v.5l-.8.2v-.4h-1c.2 0 .4.2.4.4v.1l1.1.4c.2.1.3.2.3.4v1c0 .3-.2.5-.5.5h-1.2c-.3-.1-.5-.3-.5-.5z" fill="#ef3e42"/><path d="m60.8 102.1h2v.7h-1.6c.2 0 .4.2.4.4v.3h.8l-.2.7h-.6v.7h1.2v.7h-2z" fill="#ef3e42"/><path d="m63.3 102.1h1.8c.3 0 .5.2.5.5v.9c0 .2-.1.4-.3.4.2.1.3.2.3.4v.9c0 .3-.2.5-.5.5h-1.8zm1.5 1.4v-.7h-1.1c.2 0 .4.2.4.4v.3zm0 1.4v-.7h-.8v.7z" fill="#ef3e42"/><path d="m66.5 102.7-.1-.6h1.4l.7 3.5h-.8l-.1-.7h-1.2c.2 0 .4.2.3.4l-.1.3h-.8zm1 1.5-.2-1.4-.3 1.4z" fill="#ef3e42"/><path d="m68.9 102.1h.8v2.4c0 .2-.2.4-.4.4h1.6v.7h-2z" fill="#ef3e42"/><path d="m71.3 102.1h.8v2.4c0 .2-.2.4-.4.4h1.6v.7h-2z" fill="#ef3e42"/><path d="m50.1 107.3c0-.3.2-.5.6-.5.3 0 .6.2.6.5s-.2.5-.6.5-.6-.2-.6-.5zm1 0c0-.2-.2-.4-.4-.4-.3 0-.4.1-.4.4 0 .2.2.4.4.4s.4-.2.4-.4zm-.7-.3h.3c.1 0 .2.1.2.2s0 .1-.1.2l.1.1h-.1l-.1-.1h-.1v.1h-.1v-.5zm.3.3s.1-.1 0 0c.1-.1.1-.1 0-.1h-.1v.1z" fill="#231f20"/></svg>