<svg height="209.631373" viewBox="0 0 144 63.411" width="477.027835" xmlns="http://www.w3.org/2000/svg"><g fill="#ba8f62"><path d="m131.811 37.31-.555 1.49h-.012l-.528-1.49h-.808v2.282h.466v-1.819h.013l.635 1.819h.451l.663-1.819h.01v1.819h.467v-2.282zm-4.165.405h.686v1.877h.47v-1.877h.687v-.405h-1.843zm-5.019 13.657v-3.76l-9.468-3.165h28.722l-5.298 3.086-.411.238.402.251 5.367 3.35zm-.571 4.886h-100.112v-8.074h100.111v8.074zm-100.683-8.626v3.74h-19.315l5.367-3.35.402-.251-5.709-3.324h28.721l-9.467 3.165zm115.906.157 5.805-3.382.916-.533h-32.552v3.738h-78.897v-3.738h-32.551l6.72 3.915-6.659 4.153h21.313v4.887h101.254v-4.887h21.312z"/><path d="m27.706 51.466c.003-.161-.064-.26-.163-.319a.745.745 0 0 0 -.378-.085c-.335 0-.5.097-.529.266-.122.698 2.611.264 2.314 1.956-.188 1.08-1.169 1.604-2.44 1.604-1.22 0-1.888-.719-1.773-1.559h1.447c.003.168.07.291.191.37a.729.729 0 0 0 .409.116c.377 0 .649-.122.689-.343.122-.703-2.62-.221-2.311-1.993.173-.99 1.104-1.49 2.26-1.49 1.284 0 1.752.662 1.719 1.478h-1.435m4.691-1.479c-1.438 0-2.582.95-2.837 2.411-.277 1.585.531 2.488 1.981 2.488 1.367 0 2.578-.891 2.855-2.475.215-1.228-.35-2.424-1.999-2.424zm-.21 1.137c.672-.02.812.653.701 1.288-.135.77-.491 1.337-1.147 1.337-.727 0-.776-.742-.673-1.337.103-.589.431-1.288 1.119-1.288m3.302-1.013h1.51l-.486 2.787c-.08.458-.061.851.563.851.545 0 .765-.347.854-.851l.485-2.787h1.511l-.46 2.632c-.261 1.493-1.058 2.143-2.59 2.143-1.427 0-2.124-.548-1.845-2.149zm5.091 0h4.224l-.213 1.219h-1.357l-.598 3.432h-1.51l.598-3.432h-1.357zm4.051 4.651.811-4.651h1.511l-.275 1.573h1.427l.275-1.573h1.509l-.812 4.651h-1.51l.314-1.798h-1.427l-.313 1.798zm8.57 0 .279-.609h1.504l.073.609h1.504l-.839-4.65h-1.536l-2.463 4.65zm1.691-1.579h-.953l.759-1.665zm2.038-3.072h4.223l-.213 1.219h-1.356l-.6 3.432h-1.508l.597-3.432h-1.356zm4.091 4.654.813-4.654h1.509l-.623 3.567h2.074l-.19 1.087zm5.463-.003.279-.609h1.504l.073.609h1.504l-.84-4.65h-1.536l-2.463 4.65zm1.69-1.579h-.953l.759-1.665zm5.608-.529.128-1.059.259-1.484h1.447l-.812 4.654h-1.416l-1.199-2.534-.127 1.059-.257 1.472h-1.447l.813-4.651h1.414zm2.481-2.543h4.222l-.212 1.219h-1.358l-.599 3.432h-1.508l.597-3.432h-1.356zm4.091 4.651.812-4.651h1.51l-.813 4.651zm5.831-2.874c.039-.485-.212-.764-.687-.764-.531 0-.932.46-1.088 1.358-.114.653-.081 1.267.688 1.267.486 0 .777-.341.912-.788h1.454c-.346 1.203-1.323 1.926-2.54 1.926-1.522 0-2.278-.943-2.016-2.455.265-1.508 1.438-2.444 2.724-2.444 1.409 0 2.074.704 1.986 1.9zm3.77 2.877.813-4.654h1.508l-.622 3.567h2.075l-.19 1.087zm4.271 0 .81-4.654h3.757l-.189 1.085h-2.247l-.115.662h1.901l-.189 1.086h-1.901l-.128.734h2.336l-.19 1.087zm5.686-.003.278-.609h1.505l.072.609h1.503l-.838-4.65h-1.537l-2.463 4.65zm1.69-1.579h-.953l.759-1.665zm6.253 1.594h-.974l.023-.458c-.302.296-.766.567-1.488.567-1.178 0-2.1-.767-1.815-2.393.259-1.485 1.358-2.506 2.85-2.506 1.107 0 1.896.582 1.882 1.724h-1.433c-.044-.381-.283-.587-.674-.587-.595 0-.972.541-1.115 1.361-.114.662-.015 1.264.747 1.264.307 0 .734-.213.867-.536h-.666l.178-1.012h2.068zm1.691-4.666h1.51l-.487 2.787c-.078.458-.06.851.563.851.544 0 .766-.347.854-.851l.486-2.787h1.51l-.459 2.632c-.261 1.493-1.06 2.143-2.589 2.143-1.428 0-2.126-.548-1.845-2.149zm4.561 4.654.812-4.654h3.758l-.19 1.085h-2.247l-.115.662h1.9l-.19 1.086h-1.9l-.128.734h2.337l-.191 1.087zm-101.245-7.926h-1.894l-.162.806h1.742l-.135.671h-1.742l-.196.982h1.981l-.134.674h-2.713l.761-3.805h2.627zm.837 1.96c-.038.212-.018.614.636.614.356 0 .769-.09.85-.492.059-.297-.195-.376-.557-.472l-.368-.096c-.552-.142-1.078-.279-.91-1.115.084-.424.445-1.166 1.607-1.166 1.099 0 1.238.759 1.151 1.224h-.713c.014-.169.034-.57-.624-.57-.286 0-.648.11-.718.453-.06.298.159.36.302.398l.832.226c.462.129.866.341.729 1.024-.227 1.138-1.341 1.237-1.656 1.237-1.306 0-1.369-.794-1.275-1.265zm4.067 1.173h-.745l.626-3.133h-1.08l.135-.672h2.903l-.133.672h-1.08zm1.56-.002h-.744l.155-.774h.744zm104.768-3.298h.107c.713 0 .983-.4 1.06-.701h.61l-.8 4.001h-.742l.55-2.751h-.895zm1.798 2.373c-.063.636.32 1.029.959 1.029.676 0 1.466-.499 1.774-2.047.112-.563.39-2.057-.911-2.057-.735 0-1.373.457-1.568 1.438-.134.67.17 1.249.889 1.249.253 0 .557-.066.779-.337l.01.011c-.174.838-.534 1.112-.841 1.112-.228 0-.366-.117-.354-.392l.001-.007h-.738zm1.019-1.75c.114-.573.478-.675.668-.675.379 0 .508.282.417.737-.095.475-.42.67-.678.67-.28 0-.528-.129-.407-.732m2.168.725c-.279 1.402.008 2.055.892 2.055.882 0 1.431-.652 1.712-2.055.279-1.402-.009-2.049-.893-2.049-.883 0-1.431.646-1.711 2.049zm.763 0c.207-1.03.399-1.419.822-1.419.424 0 .461.389.255 1.419s-.401 1.424-.823 1.424c-.423-.001-.459-.394-.254-1.424m3.207-.355h.114c.223 0 .637-.022.741-.547.03-.148.04-.518-.369-.518-.51 0-.613.518-.643.661h-.682c.15-.757.65-1.291 1.497-1.291.506 0 1.115.271.945 1.119-.082.41-.371.665-.607.766l-.002.011c.125.039.518.246.384.924a1.567 1.567 0 0 1 -1.536 1.284c-.352 0-1.287-.084-1.038-1.329h.727l-.007.005c-.042.213-.085.693.408.693.294 0 .594-.212.683-.653.108-.544-.381-.566-.727-.566z"/><path clip-rule="evenodd" d="m65.706 32.737h-9.678v-.601h9.678zm-13.287-6.835h-3.301c1.71-5.264 3.399-10.533 3.399-10.533zm-4.211-15.363h9.053v.6h-9.053zm-4.407 18.624h-11.435v-.6h11.435zm34.343 4.164h5.552l1.324-4.462c.209-.53.052-1.036-.424-.209-.734 1.275-.995 1.806-3.007 1.816l-7.412.044c-1.164.006-1.646-1.05-1.493-1.897l1.752-9.603v-.299h.054l.472-2.585h-2.886v-.601h2.957v.209-.208l.037.001 2.155-11.821c.232-.954-.352-1.177-.935-1.174h-13.128c-.476.057-.373.445.163.514 1.523.194 2.946.491 2.744 2.523h7.27v.6h-7.351l-1.962 12.543h3.479v.599h-3.573l-1.77 11.323-.918-11.323h-3.508v-.599h3.459l-.209-2.577h-6.348v-.6h6.299l-.942-11.623c-.114-1.27-.696-1.387-2.073-1.38h-13.024c-.396.002-.989.415-.354.53 1.224.222 2.308-.122 3.025 1.293.28.554-.072 1.31-.229 1.668l-4.58 10.623h2.763v.6h-3.022l-2.388 5.537v.3h-.128l-1.532 3.554c.006-.053.015-.102.021-.153a7.451 7.451 0 0 0 -.368-3.4h-3.715v-.6h3.486c-.742-1.741-2.077-3.418-3.849-5.08-1.341-1.256-3.192-2.629-3.468-4.426-.128-.84.467-1.697 1.681-2.445.888-.549 3.226-.549 4.343.451 1.678 1.501 1.234 2.799.766 4.151-.132.382.24.394.318.156 0 0 3.921-8.439 3.998-8.916.076-.478.313-.716-.006-1.033-1.209-1.193-5.025-5.88-10.474-5.298-4.324.461-8.021 1.251-11.511 7.412-1.135 2.004-1.024 5.532.13 8.654 1.394 3.768 3.204 4.824 5.921 7.747.752.809 2.088 3.72-.367 5.084-2.204 1.226-5.552 1.065-8.027-1.224-2.189-2.023-2.321-3.4-1.382-5.631.305-.721-.082-.555-.318-.235l-4.94 10.827c.491 2.38 3.36 4.349 8.375 6.385 4.58 1.858 9.768.419 12.38-1.264a15.788 15.788 0 0 0 3.535-3.114l-.685 1.589c-.708 1.195-.792 1.642-2.687 2.16-.596.162-.396.427.081.425h10.243c2.62-.055 3.13-1.139 3.718-2.532.107-.252.4-1.105.812-2.331h5.88l-.021 2.252c.008 1.589-1.132 2.032-2.035 2.341-.468.159-.408.272-.041.271h30.598c1.27-.007 1.214-.349 1.528-1.091l1.144-3.847h-5.372v-.601" fill-rule="evenodd"/><path clip-rule="evenodd" d="m75.032 15.804v.329h-.001l6.686.008v-.6l-6.647-.008-.038.207z" fill-rule="evenodd"/><path d="m99.821 15.541h3.017v.6h-3.017zm1.746 3.177h6.828v.599h-6.828z"/><path clip-rule="evenodd" d="m74.436 19.316h2.516v-.598h-2.463l-.053.299zm.596-3.575-.071.392h.07l.001-.329zm-13.788 3.575h2.689l.093-.598h-2.831zm-.258-3.175h1.992v-.6h-2.04z" fill-rule="evenodd"/><path d="m76.238 24.051h6.749v.6h-6.749zm12.467 0h5.478v.6h-5.478zm-4.685 0h3.494v.6h-3.494zm17.838-15.964.819-.371.004-1.192-.982.424zm1.635-.669.774-.217.027-1.232-.847.29zm1.419-.348.651-.087.503-1.412-1.057.159zm1.181-.126.794.011.689-1.411-.979-.026zm2.49-1.321-.886 1.455.888.306 1.056-1.495zm1.745.61-1.167 1.481.637.555 1.482-1.321zm2.225 2.646-.505-.926-1.66 1.147.351.841zm.555 2.515-.238-1.509-1.911 1.072c-.014-.118.082 1.361.082 1.361zm-.026 1.35-2.016 1.111-.027 1.455 2.043-1.058zm-.106 2.647-1.993 1.005.008 1.482 1.905-1.085zm-2.277 5.506 1.998-1.202.12-1.657-1.985 1.271zm1.833.081-1.944 1.24-.048 2.317 2.025-1.627zm.073 3.32-1.941 2.044.857 2.081 1.521-2.26zm-.08 5.16 1.391 1.152.792-2.182-1.11-1.232zm2.661 2.106 1.587.753.08-2.223-1.35-.833zm2.7-.954.794 2.105 1.588.047-.873-1.953zm2.62.279 1.309 1.864 2.056-.231-1.737-1.792zm3.136-.279 1.277 1.713 1.78-.601-1.469-1.628zm2.859-.794 1.511 1.463 1.53-1.028-1.651-1.268zm3.493-2.262-.993.753 1.511 1.037 1.187-1.359zm2.069-4.291-.698.703-.1 1.602.836-.754zm-1.488 1.42-1.07.837-.107 1.636 1.114-.993zm-2.043 1.465-1.03.548-.564 2.048 1.229-.675zm-2.179 1.035-1.137.381-1.414 2.132 1.984-.515zm-4.338 2.792 1.271-1.9-1.511.232-1.546 1.668zm-3.892-.199c.12.04 2.238-1.452 2.238-1.452l-1.627-.322-2.278.94s1.549.794 1.667.834zm-2.897-1.866 2.103-.476-.996-.949-2.101.116zm-2.026-3.732.477 1.629 1.906-.08-.622-1.529zm1.338-2.66-1.427-.499-.069 1.77 1.548.198zm-1.304-1.906 1.325.496.06-1.528-1.301-.663zm.165-2.819 1.318.756.163-1.401-1.496-.704zm1.78-2.961-1.621-.929-.11 1.349 1.571.84zm-1.581-2.397 1.699 1.11.057-1.151-1.796-1.389zm-.437-2.661 2.175 1.285-.148-1.364-2.385-1.033zm-.795-1.708 2.482.317-.786-1.455-2.609.265zm-1.627-1.389 2.223-.674-1.448-.81-1.808 1.087zm-2.104-.596 1.454-1.15-1.276-.092-1.091 1.123zm-.516-1.254-1.111.027-.914 1.069 1.15.039z"/><path d="m114.59.671c-7.313 0-13.7 3.976-17.161 9.868h-20.953v.6h20.593a19.87 19.87 0 0 0 -1.715 4.402h-3.235v.6h3.081a19.921 19.921 0 0 0 -.419 2.497h-15.209v.6h15.179c-.03.445-.068.888-.068 1.341 0 2.299.412 4.499 1.133 6.556h-14.655v.6h14.874c2.883 7.447 10.103 12.751 18.555 12.751 10.977 0 19.906-8.93 19.906-19.906 0-10.979-8.93-19.909-19.906-19.909zm0 38.854c-7.915 0-14.705-4.883-17.535-11.792h2.289v-.6h-2.508a18.782 18.782 0 0 1 -1.194-6.556c0-.453.037-.896.067-1.341h2.206v-.6h-2.175c.088-.853.251-1.682.447-2.497h2.442v-.6h-2.287a18.894 18.894 0 0 1 2.583-5.608l.543-.404-.001-.317c.203-.269.4-.54.616-.798l.094.64.967-.586-.093-1.117a18.826 18.826 0 0 1 1.674-1.52c.021.118.034.209.034.209l.705-.253.248-.695c.34-.239.692-.461 1.049-.679l-.449 1.124.869-.194.676-1.401-.398.049a18.818 18.818 0 0 1 9.132-2.356c10.447 0 18.948 8.499 18.948 18.947 0 .357-.035.707-.055 1.06l-.856 1.009.027 1.412.618-.457c-.032.205-.054.413-.094.615l-.96 1.233.647.054c-.058.209-.101.424-.163.63l-1.199.03-.715.715 1.477.47c-2.733 7.106-9.617 12.174-17.676 12.174z"/><path clip-rule="evenodd" d="m83.516 33.928h5.029v-.601h-4.85z" fill-rule="evenodd"/><path d="m91.086 33.327h6.671v.601h-6.671z"/><path clip-rule="evenodd" d="m42.761 16.652h-6.822v.6h6.562zm-4.656 6.437h1.88l.128-.3v-.3h-2.236c.083.2.16.399.228.6m27.935-17.247c.016-.094.021-.179.029-.267h-4.165v.6h4.084z" fill-rule="evenodd"/><path d="m38.732 60.907h-.742l.115-.54c.142-.667.603-.842.918-.905l-.057.271c-.374.111-.446.301-.499.502h.408zm-1.22 0h-.741l.114-.54c.142-.667.603-.842.918-.905l-.056.271c-.374.111-.446.301-.5.502h.408zm3.172 2.41h-.795l.667-3.133h-1.15l.144-.672h3.091l-.143.672h-1.147zm2.855-1.705-.362 1.705h-.795l.808-3.805h.794l-.307 1.448h1.481l.307-1.448h.794l-.808 3.805h-.795l.364-1.705zm6.259-1.428h-2.017l-.172.807h1.854l-.144.672h-1.852l-.209.982h2.106l-.142.672h-2.881l.807-3.805h2.792zm2.699 2.441h1.889l-.146.692h-2.684l.809-3.805h.793zm5.856-2.441h-2.017l-.172.807h1.853l-.143.672h-1.853l-.208.982h2.106l-.143.672h-2.881l.808-3.805h2.792zm1.145 2.347h1.401l.077.786h.862l-.529-3.806h-.915l-2.163 3.806h.836zm1.158-2.158h.011l.15 1.508h-.969zm4.018.898h1.59l-.435 2.047h-.53l.023-.484c-.251.233-.615.578-1.304.578-.916 0-1.605-.657-1.323-1.983.222-1.039 1.002-2.015 2.283-2.009 1.166 0 1.466.751 1.397 1.277h-.794c.031-.148-.138-.627-.706-.627-.564 0-1.169.394-1.377 1.369-.219 1.032.288 1.298.826 1.298.174 0 .772-.066 1.098-.825h-.886zm5.333.712c-.213.998-.905 1.429-1.863 1.429-.35 0-.85-.085-1.107-.462-.157-.231-.171-.538-.101-.92l.536-2.518h.806l-.523 2.465c-.112.529.146.761.517.761.545 0 .824-.264.922-.724l.532-2.502h.807zm4.062-1.799h-2.016l-.172.807h1.853l-.143.672h-1.853l-.209.982h2.108l-.144.672h-2.882l.809-3.805h2.793zm1.986 1.231c-.378 1.778.901 1.996 1.405 1.996s1.875-.218 2.254-1.996c.378-1.778-.9-1.995-1.406-1.995-.503 0-1.876.217-2.253 1.995zm.794 0c.226-1.062.888-1.323 1.317-1.323s.979.262.753 1.323c-.225 1.061-.886 1.322-1.316 1.322-.431 0-.979-.261-.754-1.322m3.997 1.902h-.795l.809-3.805h2.705l-.142.672h-1.912l-.182.858h1.672l-.143.673h-1.671zm7.09-2.553c-.017-.227-.047-.653-.703-.653-.38 0-.996.254-1.223 1.32-.144.678-.004 1.288.668 1.288.44 0 .799-.247.993-.709h.794c-.334.821-.995 1.399-1.948 1.399-1.013 0-1.588-.685-1.312-1.99.281-1.318 1.189-1.999 2.169-1.999 1.138 0 1.432.785 1.356 1.344zm2.087.848-.363 1.705h-.795l.81-3.805h.794l-.308 1.448h1.482l.307-1.448h.794l-.809 3.805h-.795l.363-1.705zm3.03-.197c-.378 1.778.9 1.996 1.405 1.996.504 0 1.875-.218 2.254-1.996.378-1.778-.901-1.995-1.406-1.995-.504 0-1.875.217-2.253 1.995zm.794 0c.227-1.062.888-1.323 1.316-1.323.431 0 .979.262.754 1.323-.226 1.061-.886 1.322-1.316 1.322s-.979-.261-.754-1.322m3.934 1.902h-.795l.81-3.805h.794zm3.813-2.553c-.016-.227-.047-.653-.703-.653-.382 0-.997.254-1.222 1.32-.146.678-.005 1.288.667 1.288.439 0 .799-.247.993-.709h.794c-.334.821-.998 1.399-1.949 1.399-1.011 0-1.588-.685-1.312-1.99.282-1.318 1.19-1.999 2.17-1.999 1.139 0 1.432.785 1.354 1.344zm4.419-.58h-2.018l-.172.807h1.854l-.143.672h-1.853l-.209.982h2.105l-.14.672h-2.883l.808-3.805h2.791zm2.143-.67h.745l-.116.539c-.142.668-.604.842-.92.906l.059-.271c.374-.11.447-.302.499-.503h-.407zm-1.219 0h.744l-.115.539c-.142.668-.603.842-.919.906l.058-.271c.373-.11.446-.302.499-.503h-.409z"/></g></svg>