<svg height="296.463531" viewBox="0 0 144.002 126.586" width="337.309617" xmlns="http://www.w3.org/2000/svg"><path d="m135.491 74.402c.527-3.327.791-6.705.791-10.121 0-8.679-1.7-17.097-5.051-25.022a64.09 64.09 0 0 0 -13.776-20.432 64.06 64.06 0 0 0 -20.432-13.775c-7.926-3.353-16.344-5.052-25.022-5.052-8.677 0-17.096 1.699-25.021 5.052a64.081 64.081 0 0 0 -20.433 13.775 64.101 64.101 0 0 0 -13.776 20.432c-3.351 7.926-5.051 16.344-5.051 25.022 0 3.407.266 6.788.793 10.121l-8.513 2.12 1.327 5.351a72.437 72.437 0 0 0 6.473 16.804l2.607 4.859 5.832-3.124a66.564 66.564 0 0 0 10.931 12.892 66.486 66.486 0 0 0 14.141 9.903l4.895 2.55 2.017-3.873c7.542 3.119 15.539 4.701 23.777 4.701 8.239 0 16.236-1.581 23.778-4.701l2.016 3.873 4.896-2.55a66.537 66.537 0 0 0 14.141-9.903 66.593 66.593 0 0 0 10.931-12.892l5.832 3.124 2.608-4.859a72.495 72.495 0 0 0 6.474-16.804l1.326-5.351z" fill="#fff"/><path d="m134.369 75.137a63.56 63.56 0 0 0 .929-10.856c0-34.959-28.339-63.298-63.297-63.298s-63.297 28.339-63.297 63.298c0 3.702.318 7.329.929 10.856l-8.441 2.102 1.09 4.398a71.428 71.428 0 0 0 6.386 16.575l2.143 3.994 5.769-3.09a65.328 65.328 0 0 0 11.256 13.464 65.521 65.521 0 0 0 13.931 9.757l4.023 2.096 1.982-3.808c.12.053.239.105.36.156 7.559 3.199 15.589 4.822 23.87 4.822 8.282 0 16.313-1.623 23.869-4.821.121-.051.241-.104.362-.157l1.982 3.808 4.022-2.096a65.528 65.528 0 0 0 13.932-9.757c4.374-4 8.141-8.51 11.255-13.464l5.769 3.09 2.143-3.994a71.473 71.473 0 0 0 6.386-16.575l1.09-4.398z" fill="#ba9765"/><path d="m130.335 76.47a59.84 59.84 0 0 0 1.249-12.189c0-32.907-26.676-59.583-59.583-59.583-32.906 0-59.582 26.676-59.582 59.583 0 4.177.432 8.253 1.25 12.188l-9.731 2.422.546 2.199a69.104 69.104 0 0 0 6.183 16.048l1.071 1.998 5.669-3.038a62.99 62.99 0 0 0 11.959 14.807 63.17 63.17 0 0 0 13.448 9.419l2.012 1.048 1.925-3.695c.747.354 1.502.693 2.265 1.016 7.277 3.08 15.011 4.642 22.986 4.642 7.976 0 15.711-1.562 22.986-4.642a57.473 57.473 0 0 0 2.265-1.016l1.926 3.695 2.011-1.048a63.202 63.202 0 0 0 13.449-9.419 62.99 62.99 0 0 0 11.959-14.807l5.669 3.038 1.071-1.998a69.176 69.176 0 0 0 6.183-16.048l.545-2.199zm-58.335 31.168c-23.945 0-43.356-19.412-43.356-43.357 0-23.946 19.411-43.357 43.356-43.357 23.946 0 43.357 19.411 43.357 43.357.001 23.945-19.41 43.357-43.357 43.357" fill="#0a2240"/><path d="m72 20.924c-23.945 0-43.356 19.411-43.356 43.357 0 23.944 19.411 43.357 43.356 43.357 23.946 0 43.357-19.412 43.357-43.357.001-23.947-19.41-43.357-43.357-43.357m0 83.639c-22.246 0-40.28-18.035-40.28-40.281 0-22.248 18.034-40.282 40.28-40.282 22.247 0 40.281 18.035 40.281 40.282 0 22.245-18.033 40.281-40.281 40.281" fill="#ba9765"/><path d="m112.282 64.281c0 22.245-18.034 40.281-40.281 40.281-22.246 0-40.28-18.036-40.28-40.281 0-22.247 18.034-40.281 40.28-40.281 22.247 0 40.281 18.034 40.281 40.281" fill="#006548"/><path d="m71.78 45.177c-1.176 1.439-4.146 2.326-6.72-.155 3.488-.981 3.669-6.187-1.379-6.187-2.085 0-3.836.916-4.776 2.352-1.562 2.382-.891 6.195 4.194 9.632 2.131 1.443 3.894 2.67 7.228 2.026-.222 1.474.155 2.874 1.449 4.188 1.74 1.768 2.944 3.228 3.727 4.901v-7.622a5.652 5.652 0 0 0 -2.015-4.331h10.15a5.652 5.652 0 0 0 -2.015 4.331v10.001c0 1.481.669 2.805 1.721 3.688a4.802 4.802 0 0 0 -1.721 3.688v11.331h4.182c9.54 0 6.92-9.438 3.171-11.099 4.429-.007 6.847 1.769 7.881 4.055l8.408-8.407-3.289-3.29 3.288-3.288-29.975-29.973-3.289 3.29-3.288-3.289-4.619 4.62c7.6.097 9.883 6.853 7.687 9.538" fill="#004438"/><path d="m86.011 86.821h-12.084c1.004-1.649 1.575-3.728 1.575-7.888v-5.11c-.919 1.889-2.323 3.61-4.072 4.976-2.448 1.912-5.568 3.126-8.967 3.126-7.865 0-14.241-5.357-14.241-11.965 0-7.895 6.369-11.595 10.667-10.141 5.058 1.711 5.588 7.107.717 9.009.221-3.933-6.913-5.115-6.913.771 0 4.367 4.076 8.501 9.104 8.501 2.563 0 4.879-.921 6.534-2.401l1.668 1.668-1.669-1.669c1.591-1.424 2.571-3.363 2.571-5.504 0-9.57-10.673-16.513-17.217-12.456.043-1.04.977-3.034 3.318-3.94-2.369-1.935-3.71-4.454-4.074-6.997l-14.188 14.192 3.288 3.289-3.29 3.289 29.789 29.789v-3.637h6.946v3.637z" fill="#004438"/><g fill="#fff"><path d="m61.796 78.101c-5.028 0-9.104-4.134-9.104-8.501 0-5.887 7.134-4.704 6.913-.771.846-1.015 2.002-5.429-2.364-6.228-3.632-.665-6.145 2.702-6.5 6.103-.528 5.058 3.471 11.39 11.054 11.39 3.43 0 6.187-1.048 8.204-2.726l-1.668-1.668c-1.655 1.48-3.97 2.401-6.535 2.401m2.129-42.465c-4.129 0-7.146 1.521-8.984 3.756l1.791 1.272c1.459-2.175 4.242-3.324 6.994-3.324 7.819 0 8.748 9.215 1.334 7.683 2.574 2.479 5.544 1.594 6.721.154 2.21-2.704-.121-9.541-7.856-9.541"/><path d="m76.703 68.819c0-5.752-1.298-8.1-4.928-11.786-1.294-1.314-1.671-2.715-1.449-4.188-3.334.644-5.097-.584-7.227-2.026-5.084-3.437-5.756-7.251-4.194-9.633l-2.173-.522c-.898 1.339-1.296 3.067-.874 5.158 1.124 5.571 3.909 6.304 11.458 11.321 8.14 5.409 8.466 15.412 2.684 20.224l1.432 1.433c3.214-2.512 5.271-6.229 5.271-9.981m-54.973-3.762-.358.838.19 3.955-.927 2.212-3.454.166-1.285-2.154-.332-6.906 2.89-.138.105 2.179-.98.046.192 4.017.417.708 1.229-.059.209-.505-.192-4.017 1.029-2.481 3.405-.162 1.502 2.499.318 6.643-2.889.138-.106-2.193.98-.047-.192-4.002-.47-.798z"/><path d="m21.73 65.057-.358.838.19 3.955-.927 2.212-3.454.166-1.285-2.154-.332-6.906 2.89-.138.105 2.179-.98.046.192 4.017.417.708 1.229-.059.209-.505-.192-4.017 1.029-2.481 3.405-.162 1.502 2.499.318 6.643-2.889.138-.106-2.193.98-.047-.192-4.002-.47-.798zm-4.914-5.697-.75-2.406.895-4.774 1.571-1.972 7.193 1.349.767 2.409-.896 4.774-1.587 1.968zm1.5-1.953 4.987.934.544-.653.634-3.375-.272-.806-4.986-.935-.51.644-.639 3.406zm7.937-10.811.686-.504 1.128-2.477-.071-.847-4.964-2.261-.359.788-1.74-.793 1.627-3.574 1.741.792-.359.788 5.994 2.729.166 2.523-1.717 3.772-2.012 1.531-5.994-2.73-.359.789-1.741-.793 1.628-3.574 1.74.791-.359.789zm2.974-15.942 4.644 3.591.53-.685 1.513 1.169-2.403 3.108-1.513-1.17.53-.685-4.645-3.591-1.181 1.53.985.764-1.342 1.737-2.5-1.934 6.253-8.087 2.5 1.934-1.344 1.736-.986-.762zm13.459-5.085-1.336-1.659-3.301 2.657 1.334 1.658.676-.541 1.198 1.489-3.06 2.463-1.199-1.49.675-.543-3.681-4.575-.674.544-1.199-1.491 3.06-2.462 1.199 1.489-.675.544 1.147 1.425 3.301-2.657-1.146-1.425-.687.552-1.199-1.49 3.06-2.463 1.199 1.49-.675.544 3.681 4.574.675-.543 1.199 1.491-3.061 2.462-1.198-1.489zm5.237-3.688-2.412-5.353-.79.357-.786-1.744 8.573-3.863 1.305 2.895-2.001.903-.52-1.153-3.779 1.704.813 1.804 3.441-1.551.786 1.744-3.442 1.55.814 1.805 3.793-1.711-.519-1.151 1.988-.896 1.305 2.896-8.573 3.863-.786-1.743zm10.77-4.586-.977-5.79-.854.144-.318-1.885 7.609-1.283 2.377.797.512 3.034-1.659 1.511.804.858.147.87.746.329 1.372-.23.319 1.886-2.318.391-2.411-.993-.313-1.854-.719-.637-2.501.421.349 2.067.869-.147.318 1.886-3.889.656-.318-1.886zm5.432-4.98.615-.543-.174-1.033-.795-.254-3.889.656.31 1.837zm13.299 5.637-3.741-6.769-.392 4.489.863.076-.167 1.905-3.65-.319.166-1.906.862.076.51-5.849-.862-.075.165-1.905 3.266.284 3.382 6.089.335-3.844-.863-.076.166-1.905 3.774.329-.166 1.906-.863-.076-.675 7.754zm10.815.362 2.452-5.333-.787-.362.799-1.737 3.569 1.641-.799 1.737-.786-.362-2.453 5.333 3.487 1.602.458-.997 1.995.917-1.257 2.735-8.264-3.798.799-1.737zm9.893 4.805 3.599-4.637-.684-.53 1.173-1.511 7.427 5.769-1.948 2.509-1.735-1.348.775-.998-3.273-2.543-1.214 1.563 2.98 2.315-1.172 1.51-2.98-2.315-1.214 1.563 3.285 2.552.776-.998 1.722 1.338-1.947 2.508-7.427-5.768 1.172-1.511zm12.732 12.08.48.625.307-.528-2.327-3.029-.59.159.528.688-1.518 1.165-2.553-3.324 1.517-1.166.622.81 8.15-2.165 1.526 1.988-4.203 7.304.612.798-1.517 1.164-2.553-3.324zm3.282-4.218-2.805.77 1.328 1.729zm3.181 17.651-1.975-1.579-1.782-4.183.229-2.518 6.732-2.868 1.959 1.586 2.656 6.232-2.771 1.18-.86-2.021 1.009-.429-1.521-3.571-.637-.52-4.667 1.987-.092.846 1.225 2.874.673.521.72-.306-.34-.797 1.759-.75 1.541 3.614-1.76.75-.339-.797zm2.502 4.792-.289.801.445 2.685.531.665 5.38-.891-.14-.855 1.886-.312.641 3.877-1.887.312-.14-.855-6.497 1.075-1.545-2.001-.677-4.09.818-2.393 6.497-1.075-.142-.855 1.887-.312.641 3.876-1.886.312-.142-.854zm.911 9.983 5.854.439.064-.864 1.907.144-.704 9.377-3.168-.238.165-2.19 1.26.094.311-4.133-1.973-.148-.283 3.763-1.907-.143.283-3.763-1.974-.148-.312 4.149 1.26.094-.163 2.175-3.168-.239.705-9.375 1.908.143z"/></g><path d="m125.553 77.615a56.45 56.45 0 0 1 -.8 2.871l-5.474-1.682c-2.86 9.304-8.385 17.401-15.645 23.453l4.711 5.655-8.19 10.394a60.79 60.79 0 0 0 12.953-9.075 60.679 60.679 0 0 0 13.907-18.761 60.688 60.688 0 0 0 3.23-8.296l1.095 13.893a66.797 66.797 0 0 0 5.98-15.522zm-85.185 24.643c-7.26-6.051-12.784-14.15-15.643-23.453l-5.475 1.682a55.156 55.156 0 0 1 -.8-2.871l-11.765 2.93a66.777 66.777 0 0 0 5.979 15.522l1.096-13.893a60.559 60.559 0 0 0 3.23 8.296 60.687 60.687 0 0 0 13.906 18.761 60.807 60.807 0 0 0 12.954 9.075l-8.192-10.394z" fill="#ba9765"/><path d="m72 110.386c-11.207 0-21.494-4.023-29.492-10.699l-6.851 8.227a56.41 56.41 0 0 0 14.241 8.691c6.999 2.962 14.436 4.461 22.102 4.461 7.668 0 15.104-1.499 22.103-4.461a56.41 56.41 0 0 0 14.241-8.691l-6.852-8.226c-7.997 6.674-18.283 10.698-29.492 10.698" fill="#fff"/><path d="m42.455 108.912 1.968-3.423-.543-.313.641-1.115 4.743 2.727.991 1.484-.936 1.63-1.067.174.432.933-.88 1.529-1.788-.096-4.743-2.727.641-1.114zm2.029-.342-.652 1.134 2.376 1.365.594.046.396-.688-.327-.486zm3.028.256h.606l.396-.69-.337-.489-2.377-1.365-.674 1.173zm6.008 5.585.533.203-.021-.414-2.582-.984-.292.296.585.223-.458 1.201-2.833-1.079.458-1.2.689.263 4.059-4.058 1.693.645.322 5.725.68.259-.458 1.203-2.833-1.08zm.329-3.598-1.387 1.41 1.474.561zm8.686 4.894-.526-.383-2.804-.583-1.392-.997.474-2.278 1.727-.451 4.895 1.016-.396 1.906-1.543-.32.133-.647-2.848-.592-.567.145-.167.81.318.228 2.848.591 1.562 1.113-.466 2.244-2.008.532-4.709-.978.396-1.908 1.556.324-.134.647 2.836.589.639-.164zm3.586 1.776.186-3.944-.625-.03.06-1.285 6.795.322-.101 2.133-1.587-.074.04-.849-2.995-.143-.063 1.329 2.727.131-.061 1.285-2.726-.129-.064 1.331 3.006.141.04-.848 1.576.073-.1 2.135-6.795-.322.061-1.285zm8.667.253-.454-3.922-.623.072-.148-1.278 5.434-.63 1.681.604.216 1.866-.754.774.901.492.203 1.758-1.496.982-5.434.629-.148-1.275zm4.013-3.078.487-.359-.091-.789-.563-.193-2.724.315.157 1.344zm-2.586 1.596.15 1.3 2.723-.315.504-.318-.092-.789-.552-.194zm10.554-.624.549-.152-.264-.322-2.661.744-.06.411.604-.168.346 1.239-2.92.813-.346-1.239.711-.198.855-5.675 1.746-.485 3.659 4.414.699-.196.346 1.24-2.92.814zm-1.873-3.089-.278 1.96 1.519-.424zm6.324 1.692-1.638-3.592-.57.26-.534-1.172 2.585-1.178.534 1.171-.57.26 1.638 3.593 2.524-1.15-.306-.672 1.446-.66.839 1.844-5.985 2.728-.534-1.172zm6.846-3.212-2.129-3.327-.528.338-.694-1.084 2.394-1.531.693 1.083-.527.337 2.129 3.328 2.337-1.496-.398-.622 1.338-.858 1.092 1.707-5.541 3.546-.693-1.084z" fill="#006548"/><path d="m18.219 83.94 3.624-1.57-.25-.575 1.18-.512 2.706 6.241-1.961.85-.632-1.457.78-.338-1.192-2.751-1.221.529 1.085 2.505-1.18.512-1.086-2.505-1.221.529 1.197 2.762.78-.339.627 1.448-1.96.849-2.705-6.24 1.18-.512zm7.148 11.375-.092-.645-1.537-2.417-.256-1.694 1.964-1.249 1.53.923 2.683 4.221-1.643 1.045-.846-1.332.558-.354-1.562-2.455-.5-.305-.698.444.059.386 1.562 2.456.291 1.895-1.936 1.231-1.78-1.068-2.582-4.06 1.643-1.044.852 1.339-.556.355 1.555 2.446.564.344zm7.058 4.517-2.952 2.623.416.468-.962.855-1.888-2.125.962-.854.416.469 2.953-2.623-.929-1.046-.628.557-1.054-1.188 1.589-1.411 4.911 5.528-1.589 1.412-1.055-1.188.627-.557zm-1.943 5.57.898-.922 1.138 1.108-.898.922zm81.14.079-2.803-2.781-.442.445-.912-.907 1.56-1.572 3.716 3.688.441-.445.913.906-2.001 2.018-.914-.906zm11.311-12.517-1.568 2.685-1.525 1.014-1.662-.97.11-1.231-1.048.685-1.652-.965.127-1.792 1.567-2.684 1.498-.992 1.643.96-.069 1.229 1.036-.664 1.643.958zm-4.291-2.505-.508.337-1.065 1.825-.023.596.695.406.473-.322 1.07-1.834.064-.597zm2.297 1.303-.555.349-1.064 1.825-.038.574.725.423.473-.321 1.06-1.813.057-.653zm-2.586 8.131-1.932 2.435-1.653.788-1.508-1.196.284-1.203-1.134.528-1.499-1.188.379-1.756 1.931-2.436 1.625-.768 1.49 1.182-.243 1.208 1.119-.513 1.491 1.183zm-3.892-3.088-.551.263-1.313 1.655-.108.585.631.501.513-.25 1.32-1.664.147-.581zm2.09 1.615-.598.268-1.313 1.655-.119.563.657.522.513-.251 1.306-1.646.149-.638zm4.434-16.751 1.577.638-.596 1.472-.383-.154-1.127 2.786 1.255.507-.021-.189 1.036-2.558 1.391-1.235 2.136.864.144 1.88-1.683 4.166-1.668-.674.597-1.473.474.192.925-2.288-.049-.624-.788-.319-.444.353-.846 2.091.102.644-1.093.971-3.256-1.317zm-35.181 1.352h-4.182v-11.331c0-1.481.67-2.806 1.721-3.688a4.803 4.803 0 0 1 -1.721-3.689v-10c0-1.737.783-3.292 2.015-4.331h-10.15l5.075 2.528v32.413h13.913l-2.691-2.69c-.988.494-2.294.788-3.98.788" fill="#fff"/><path d="m88.975 71.923c5.656 1.538 8.423 7.133 3.5 13l3.013 1.898-.718-1.719c3.878-2.916 4.85-13.195-5.795-13.179" fill="#fff"/><g fill="#ba9765"><path d="m88.975 71.923c3.087 1.366 5.407 8.004.808 10.309l2.691 2.691c4.923-5.867 2.157-11.462-3.499-13m-30.086-12.104c-4.298-1.454-10.667 2.246-10.667 10.141 0 6.608 6.376 11.965 14.241 11.965 3.399 0 6.52-1.215 8.968-3.126l-1.432-1.433c-2.018 1.678-4.774 2.726-8.204 2.726-7.583 0-11.582-6.331-11.054-11.389.355-3.401 2.868-6.769 6.5-6.104 4.366.8 3.209 5.213 2.364 6.228 4.871-1.901 4.341-7.297-.716-9.008"/><path d="m111.213 68.698-3.528-.697 3.719-3.719-3.722-3.722 3.531-.697-4.108.12-2.592-2.592 5.959-1.891-6.871.979-1.876-1.876 7.522-3.355-8.637 2.239-1.412-1.412 8.356-4.916-9.595 3.676-1.116-1.117 8.57-6.432-9.882 5.121-.939-.94 8.262-7.79-9.612 6.44-.857-.856 7.52-8.883-8.883 7.521-.856-.857 6.44-9.612-7.79 8.262-.94-.94 5.122-9.882-6.433 8.57-1.117-1.116 3.677-9.595-4.915 8.357-1.414-1.413 2.24-8.637-3.354 7.522-1.877-1.877.979-6.87-1.89 5.958-2.593-2.592.121-4.106-.697 3.529-3.725-3.723-3.72 3.721-.697-3.528.121 4.104-2.593 2.593-1.89-5.957.978 6.868-1.877 1.877-3.354-7.52 2.239 8.636-.255.255a14.774 14.774 0 0 1 3.141-.287l4.619-4.62 3.288 3.289 3.29-3.289 29.972 29.974-3.288 3.289 3.289 3.289-8.408 8.408c.326.718.514 1.487.585 2.267l.518-.52 9.594 3.677-8.355-4.914 1.413-1.413 8.635 2.239-7.521-3.354 1.878-1.877 6.869.978-5.957-1.89 2.593-2.593zm-13.988 12.333 8.188 4.243-7.945-5.963a8.89 8.89 0 0 1 -.243 1.72m-1.47 3.097 7.097 4.755-6.324-5.963a7.225 7.225 0 0 1 -.773 1.208m-36.386-47.767-4.489-7.633 3.145 8.207c.423-.215.871-.407 1.344-.574"/><path d="m96.604 95.132-5.568-8.311h2.535l6.333 5.361-4.539-5.361h.123l-3.012-1.898h-13.914v-32.414l-5.075-2.527a5.652 5.652 0 0 1 2.015 4.331v7.622c.85 1.819 1.202 3.891 1.202 6.885 0 1.713-.43 3.418-1.202 5.004v5.11c0 4.161-.571 6.239-1.575 7.888h12.084l-10.537 10.536v-3.637h-6.946v3.637l-29.79-29.788 3.29-3.29-3.288-3.288 14.189-14.19c.363 2.543 1.705 5.063 4.074 6.997-2.342.906-3.275 2.9-3.318 3.94 6.544-4.058 17.217 2.886 17.217 12.456 0 2.14-.981 4.08-2.572 5.503l1.668 1.669c5.783-4.812 5.457-14.815-2.683-20.223-7.549-5.018-10.335-5.75-11.459-11.322-.422-2.091-.024-3.818.875-5.158l2.172.523c.94-1.436 2.691-2.352 4.776-2.352 5.048 0 4.867 5.206 1.379 6.187 7.414 1.533 6.485-7.682-1.334-7.682-2.752 0-5.535 1.148-6.994 3.324l-1.79-1.272a9.1 9.1 0 0 0 -.816 1.171l-6.726-7.133 5.936 8.859a9.591 9.591 0 0 0 -.388 1.58l-8.848-7.49 7.521 8.882-.857.857-9.611-6.44 8.261 7.79-.94.939-9.882-5.12 8.57 6.432-1.116 1.117-9.594-3.676 8.356 4.914-1.413 1.413-8.637-2.239 7.522 3.354-1.876 1.877-6.872-.979 5.959 1.891-2.592 2.592-4.107-.121 3.531.698-3.722 3.723 3.719 3.718-3.528.697 4.104-.12 2.593 2.593-5.957 1.891 6.869-.979 1.877 1.877-7.521 3.354 8.635-2.239 1.413 1.413-8.354 4.915 9.593-3.677 1.117 1.117-8.569 6.432 9.881-5.121.94.941-8.26 7.79 9.61-6.439.857.857-7.52 8.881 8.882-7.519.857.857-6.439 9.61 7.79-8.261.939.94-5.121 9.881 6.432-8.569 1.117 1.117-3.677 9.593 4.914-8.355 1.413 1.414-2.238 8.635 3.354-7.521 1.877 1.877-.979 6.868 1.89-5.957 2.593 2.593-.121 4.105.697-3.528 3.72 3.721 3.721-3.722.697 3.53-.121-4.107 2.593-2.593 1.89 5.958-.979-6.87 1.877-1.876 3.354 7.521-2.24-8.637 1.414-1.412 4.915 8.355-3.676-9.594 1.117-1.117 6.433 8.57-5.121-9.882.939-.939z"/><path d="m56.36 38.001-5.353-7.132 4.236 8.174c.338-.371.71-.72 1.117-1.042"/></g></svg>